<svg xmlns="http://www.w3.org/2000/svg" viewBox="0 0 403.83 279"><defs><style>.a{fill:#1d1d1b;}.b{fill:#fff;}</style></defs><title>White-on-Black</title><rect class="a" width="403.83" height="279" rx="27.92" ry="27.92"/><path class="b" d="M114.64,155h12.42l.4.4v4.75l-.4.45h-.41q0-.52-1.05-1.26V159h-.21l-.2.21H125l1.26,1.87-1.06.81h.2l1.87-1,.2.21v25.85h-1l-1.06-.65c0,.57-.27.85-.81.85,0,.82-.13,1.22-.41,1.22h-1l-.61-.4-.41.65.21.2h1.22v.41a2,2,0,0,1,1.66,1l.41-.61c-.41,0-.61-.13-.61-.4v-1.26h1.26l.4.4v1.06c-.43,0-.65.13-.65.4a1.72,1.72,0,0,1,1.46,1.06v2.47L126,194.93h1.06v-.81h.4v9.09c-.27.57-.61.85-1,.85l.4.41.61-.21V210h-.4c0-.68-.14-1-.41-1l-1.26-.61v.21c0,.21.42.42,1.26.61l.2,1.05v.2l-.6.61h-.45L124.58,210v.24l1,1.22-.21.61h.21c.83,0,1.25-.27,1.25-.81h.61V213l-.4.41H125.8l-.61-.41-.41.41h-1.46c-.27,0-.4-.21-.4-.61h-1.26c0,.4-.14.61-.41.61h-1l-1.26-1h-.2v1H116.3v-.61H115v.2h.45v.41h-.85l-.41-.41v-.2l.41-.65v-1h-.41v-1.86L115,208c0-.43-.2-.65-.61-.65l-.2-.2v-1.47l.41-.4h.85l.61.4h.61l-.21-.2-1-.4-.45-1.22h-.4v1h-.41V197l.41-.41h.2l1.26.41v.24l1-.24h1.67c0-.27-.28-.41-.82-.41v-.4H116.5l-.4-.41.2-.85c-.54,0-.81-.76-.81-2.27l-.24.24h-.61l-.41-.45v-1.62h.61l-.2-.25v-.2l.2-.61-.61-1V155.43Zm-.21,38.48a1.09,1.09,0,0,1,1.06,1.22c-.57.29-.85.65-.85,1.05h-.41v-1.87l.2-.2Zm0,0a1.09,1.09,0,0,1,1.06,1.22c-.57.29-.85.65-.85,1.05h-.41v-1.87l.2-.2Zm.21-6.42,1,.82h.61C116.3,187.55,115.75,187.28,114.64,187.09Zm1.66,11c0,.55-.14.82-.41.82l-.64-.21-.21.21v.65c.43,0,.65.2.65.6h.2a.92.92,0,0,1,1-1.05h.65A2.15,2.15,0,0,0,116.3,198.05Zm-1-35.35v.41l.44.4.2-.2v-.2l-.4-.41Zm0,27.88v.25a1.64,1.64,0,0,1,1.25.81h.21l.6-.61-.6-1.05h-.21A2,2,0,0,1,115.25,190.58Zm.64-5.35v1h.41v-1Zm2.89,4.75-.21,1.25.61.61v.41l-1,.2h-.61l-.45,1.06v.2l.45.41h.2l1-.21.2,1h.2v-1.22c.27,0,.41-.27.41-.81l.24-.24h.2l.82.24v-.24c0-.28-.42-.55-1.26-.82l-.21-1v-.25h.45v-.2c-.43,0-.65-.13-.65-.4Zm-1.67,14.08h.65l.41-.44h-.61Zm0,7.43.45.61.61-.2-.21-.82Zm.65-3.29v.41h.2l.41-.41Zm.61-52.56-.41.65h.21l.61-.25ZM118,200.33h.41l.41-.41h-.41Zm.41-14.09v.45l.41.4v-.85Zm.81,16.56v.41c-.4,0-.61.13-.61.41h.61l.2-.61v-.21Zm-.2,7.47.4.41H120v-.41Zm.2-12.22v.21c.57,0,.85.27.85.81h.41a2,2,0,0,1,1-1.62Q119.18,197.65,119.18,198.05Zm.2,9.95v.2h.45c0-.3.2-.45.61-.45v-.4Zm.21-20.5v.81h.65v-.2l-.21-.61Zm.24,8.69h.61l.2-.21h.21l-.21-.6Zm.61-5.81v.2l2.07,1.47v-.82a2.19,2.19,0,0,1-1.05-1.86c-.22,0-.42.34-.61,1Zm.2-32.88v.41l.21.2h.4v-.2l-.4-.41Zm0,3.33V161l2.48,1,.2.2h.21l-.21-1v-.41l.41-.65H122.1Zm1,46.52v.2l.44.65v.41c0,.4-.28.61-.85.61v.2h1.06l.2-1C122.24,207.75,122,207.4,121.66,207.35Zm.24-11.16v.2c0,.22.48.57,1.42,1.06V197a.54.54,0,0,1-.61-.61l-.2-.2Zm.2-9.95.41.45q1.83-.62,2.07-1.26l-.2-.2A3.18,3.18,0,0,1,122.1,186.24Zm1.43,7.67-.61-.2v.81h.61c0-.54.48-.94,1.46-1.22v-.4h-.21Zm-.41,4.14v.21H124l-.24-.21v-.2Zm.41,2.89v.2h.2c0-.54.61-.81,1.66-.81v-.81C124.15,199.92,123.53,200.39,123.53,200.94Zm0,10.55v.41h.64v-.41Zm.2-49.24.44.45h.41v-.45Zm.65,33.13v.4c.54-.22.81-.42.81-.61ZM125.8,179v1.86h.45l.2-.6L126,179Zm0,12.21v.41h1.26V191Zm.45,9.5-.25.85h.65l.2-.85Zm.4-16.76-.4,1.05v.21l.81-.21-.21-1.05Zm.81,3.33v2.07h-.4V189l-.21-1.46.21-.2Zm0,0v2.07h-.4V189l-.21-1.46.21-.2Zm2.48-32.15h12q14.06,0,17.74,9.9a11.47,11.47,0,0,1,.85,4.55l-.61.2V170a.53.53,0,0,1,.61.6c-.21,2.49-.56,3.74-1.05,3.74l-.2-1.26h-1l-.2.2h-.21l-.44-.4v-.41l.24-.2v-.2l-.85-.82-.2.21h-.41l-.2-.86h-.41l.2.21-.2.24v.41l.2.2v.2l-.2.21a3.94,3.94,0,0,1,1.62,2.27v.4l-.2,1.47-1-.21h-.21l.82,1h-1.42l.2,2.07-.65.2v.61l.45.61-1.87,1a.93.93,0,0,1-1.06-1H150.6v.65c.68,0,1.77.54,3.29,1.62,0,.3.34.45,1,.45,1,.49,1.46,1.09,1.46,1.83,1.65,0,3.24,1.93,4.75,5.8l-.2.2c.51,0,.85,1,1,3.09-.4,0-.6.13-.6.4a1.44,1.44,0,0,1,.81,1.46h-.21l.21.21q-.33,5-1.42,5l.4.81-.4.85-1.46-.2H159l-.61.41c-.7-.19-1.05-.41-1.05-.65v-.21l.24-.2v-.2h-.24l-1,.4v.45c0,.35.49.62,1.46.81v.61l-.65.61h-1l-.41.45v.4c.46,0,1.29.54,2.48,1.63q-3.28,3.73-5.36,3.73c0,.22-1,.7-3.12,1.46-.3,0-.71-.42-1.22-1.26l-.61.21v-.21l-.24-.61.24-.6h-1l-.61-.45v.2a5.84,5.84,0,0,1,1.42,3.33l-3.49.2H144c-.27,0-.4-.42-.4-1.25-.41,0-.61-.34-.61-1h-.25v1.22c-.81.11-1.21.26-1.21.44l.2.61-.2.21H129.94l-.41-.41V202.84l.41-.44h8.28l.81.65h.2l-.2-.21v-.2l1.22-.45h.65c0,.44.13.65.4.65h.41c0-.56.49-.85,1.46-.85l3.09-1.22.2,1.42v.65h.41c0,.36.48.76,1.46,1.22h1.21v-.81c-.4,0-.61-.14-.61-.41v-.65l.21-1h.4c.27,0,.41.27.41.81h.24l.21-1-2.28-1.26-.44-.41v-.61a4.21,4.21,0,0,1,.85-2.07v-2.47l.2-.21-1.26-3.08.86.41.2-.21v-.61h-1.46l-.81-.85.2-.2v-.2h-.2l-.61.2q-.94-1.42-7-1.42h-8.68l-.41-.45v-9.7l.41-.41h10.31V178h.45c0-.67,1-1,3.08-1a5.77,5.77,0,0,0,3.69-5.77l.21-1.46h-.41v-1.66h-.4l.2.2v.24l-.2.21h-.21q-1.86-2.68-6-2.68H129.94l-.41-.45v-10.1Zm.61,3.29v.2l.44.45.61-.21v-.24l-.81-.2Zm4.54,46c0,.3-.4.78-1.21,1.46.27,0,.81.49,1.62,1.46.08-.57.3-.85.65-.85l-.2-.21.2-1v-.2a.58.58,0,0,1-.65-.65Zm-1-49.12v1.06l1-.25Zm1.22,53.26v.61l.44-.41-.24-.2ZM137,211.9l-.2.85h1.66v-.41l-.44-.44Zm.2-8.24v.2c.09.4.64.61,1.67.61h.2q-.19-.81-1.26-.81Zm.61-17.34H139l-.41-.4h-.4Zm.45,23.75v.81h.2l.2-.2h.21l.2.2v-.2C139,210.46,138.76,210.26,138.22,210.07Zm.2,1.22v.2l.2.61H139l.2-.81Zm.81-7.23,1,.41.24-.21h.21l-.45-1Q139.32,203.66,139.23,204.06Zm0,2.88v.21l.21.24v.2l-.21.21h.21l.2-.21,1.06.21h.4v-.86l-1-.2Zm1.47-49.52v.81h.4v-.4Zm.6,1.67-.2.2v.2l.81.81a3,3,0,0,1,1.67-.4c0-.27-.21-.41-.61-.41l-1.06.21Zm.21-2.07v.4l.81-.2V157Zm.4,20.82-.2.2v.45q1.26.24,1.26.81h.2v-.4c-.3,0-.45-.29-.45-.86Zm0-13,.41.41h.4l-.2-.61Zm.21,40.27-.21.81c.71,0,1.06.27,1.06.81h.2v-.61l-.2-1Zm.4-24.16-.4.82H143l.4-.41v-.2Zm.45,3.29v.41a1.42,1.42,0,0,1,1,.61h.21c-.09-.35-.42-.69-1-1Zm.61,25.62v.81h.81v-.81Zm2.07-51.64c0,.27-.22.41-.65.41v.45h.65c0-.3.2-.45.61-.45l-.41-.41Zm0,18.19v.41l.4.4h.21l-.21-.81Zm1.42,23.1h.2c0,.43.49,1,1.46,1.86-.13.54-.62.81-1.46.81a3.34,3.34,0,0,1-1-2Zm-.61-36.94v.4l1-.2h.65v-.4h-.65Zm.61,1.87v.2l.61,1.86h.24c0-.56.41-.91,1.22-1l-.21-.61h-1l-.65-.4Zm.2,18.79c.27.62.56,1,.85,1h.21l-.65-1.46Zm0,4.75v.4h.65l.41-.4Zm.41-8.49v.61h.44l.41-.4Zm.24-7.22v.4l.81-.4v-.2h-.2Zm.2-5.36c.19.54.4.81.61.81l.2-.2v-.61h-.4l-.2-.2Zm.21,21.47v.41h.6v-.41Zm.2-28.09.4.82h.21v-.82Zm.4,7.64-.2,1.66.2.2h.82l.44-1.66H150Zm0,9.29v.41l.41.4H151v-.4h1l.65.4h.41c0-.46-1-.86-2.89-1.21h-.44Zm.41,5.36h.2l.41-.41h-.2Zm.85-18.75v1h.61v-.2C150.58,164.11,150.38,163.84,150.19,163.84Zm.21,8.44.2.81h.2c.19,0,.39-.27.61-.81Zm2,15.26q1,0,1,1.26h.61c0-.7.14-1.06.41-1.06l.2.25,1.66-.45h.21c.27,0,.4.22.4.65a1.57,1.57,0,0,0,1.26.41v.4a4.15,4.15,0,0,0-1.46,2.48l.61.61v.2a1.42,1.42,0,0,0-1,.65h-.81v1.62l-1.46.41-.41-.41-.4,1.26.2.81-.61.61.61,1.06v.4c0,.27-.55.48-1.66.61l-.21-.2-.2.2v.21c.35,0,.56.28.61.85l-.41.4q1.26,0,1.26,1,0,.48,1.83,1.05.08-1.05.45-1.05l-.25-.21v-.2l.25-.2V201l1,.2h.2l-1.66-1-.2.2h-.21l-.2-.2v-.25l.41-1,2.88-.21v-.2l-.41-.61-1,.2-1.06-.4v-.85l.25-.21-.25-.2v-.81l.65-.65H157l-.2,1.05.2.21h.41l.24-1-.24-1.46.24.2h.2l.41-.4v-.2l-.2-.21v-.2c.81-.35,1.22-.64,1.22-.85l-.61-1q.48-1.26.81-1.26l.2.21v-.21l-.81-1.21.41-.61v-.45l-.21.2h-.2l-.2-.2-.21.2h-.2c-.27,0-.41-.2-.41-.61H154.7c-.27,0-.47-.62-.61-1.86l1.26-.41.2.21h.61v-.21a3,3,0,0,1-1.66-.61c-1.09.76-1.63,1.38-1.63,1.87Zm-.21-20,.45.61L152,170h.2l2.48-.61A2.79,2.79,0,0,0,152.22,167.53Zm.45,24.15-.45.81.21.21-.21.24h1.26l-.4-.65.81-.2v-.41Zm.2-26.42v.2c.38,0,.79.49,1.22,1.46l.2.2h.21l.2-.2v-.2a2,2,0,0,0-1.62-1.46Zm0,7.83.21.2v.25l-.21.2v.2h.41l.4-1.26Zm.21,32v.2l.4.41h.2v-.41l-.2-.2Zm2.27-1.87-.45.81v.2c.71-.16,1.06-.36,1.06-.6l-.41-.41Zm0-33.85.2,1h.2v-1Zm.2-1.87v.2l.41.41v-.2Zm1.22,21.27v.61l.61-.2V189Zm1-12.58.82.61-1.47,1.66H157v-.65A2.75,2.75,0,0,0,157.82,176.22Zm0-2.07v.6h-.44v-.2Zm-.2-4.14v.6H158v-1Zm.2-4.35v.45h1v-.45Zm0,32.64v.2l.61,1.42-.2,1.06h.41c0-.27.27-.41.81-.41v-.4c-.41,0-.61-.36-.61-1.06l.41-.61v-.2Zm.41-23.75h.2l1,.2a1.45,1.45,0,0,1-.81,1.47h-.41V176l.2-.2-.2-.24Zm.41,29.31h.2l1,.4v.41l-.85.85h-.4l-.41-.4v-.86Zm1.25-10.51.41.4.41-.4Zm.61,3.89v.21l.41.44v-.65Zm0,2.28.21.2h.61v-.61h-.41Z"/><path class="b" d="M191.11,155.15l.2.2v9.05l-1.18.82v.2l.61.2c0-.4.13-.61.37-.61h.2v.41l-5.11,1.79-3.37,2.55-1.58-.4c.27.59.54.92.81,1q0-.57.36-.57v.37a20.49,20.49,0,0,0-4.3,10.27l-.2-.21h-.61c0,.27.2.41.61.41l.2.2v.41c0,1.57-.2,2.35-.61,2.35h-.2l.2.21v.4l-.41.37-.56-.21-.21.21v.2l.21.2h.2l.57-.2q.72.73,1.38,6.13l-.57.57h-.2v.2h.36v-.2c.68,0,1,.59,1,1.78l-.21.21q.45.12,3.17,4.95,0,.45,4.14,3.12l3.33.82v.56l-.2.21v.2l-.17-.2H189v.61h-.41v-.21l.2-.2v-.2l-1.17-.21a2.24,2.24,0,0,1-2.19,1.79v.41c.4,0,.6.25.6.77v.2l.78-.2-.17-.21v-.16c.65,0,1-.13,1-.4v-.41l-.21-.57h.21l.77-.2h.4l1.38.36v-.16c.55.19.82.38.82.57l-.21.2v.21H191l-.21.2v.57l.21.2v.2l-.21.21h-.2l-.41-.41c0,.27-.2.41-.6.41l-.17,1h.17l.81-.2c0,.27.25.4.77.4V208l-.37,1h-.2l-.81-.4-.77.61v.4h.4v.77l-.4.41-.81.2v-.61h.4V210l-.57-.16a4.31,4.31,0,0,0,1.18-2.2q-.45,0-1.38,1.59l.2.2h-.2l-.61-.41H187l-.37.41c0,.38.26.57.77.57l-.2.61.2,1-.2-.2H187v.2q.6,0,.81,1.38h-.41v.2l-3.53-.77.16-1-1.17-.37-.41.37c0-.52-.19-.77-.57-.77h-.2a.68.68,0,0,1-.77.77q-3.57-1.1-8.48-6.09l.16-.81-.16-.21h-.21l-.4.41-3-4.14.21-.61h-.21c-.48,0-1.34-1.77-2.55-5.32,0-1.19.46-1.78,1.38-1.78l-.21-1c.27,0,.41.21.41.61l.2-.2h.17l.2.2v-.61H169l.4.41-.61.57.21.2v.41l-.21-.21h-.2l-.2,1.38,1,.21v-.21a2.22,2.22,0,0,1,1.95,1.18l-.2.2.2.21h.41l-.41-1.18h.2l.61.2V195l.57.41.2-.21h.41v.41l.41-.41V195l-.21-.2v-.21l.21-.2-.21-.2h-.2c0,.54-.2.81-.61.81h-.2c-.6-.65-1.06-1-1.38-1l-.37.36H170c-.27-.05-.53-.38-.77-1a1.82,1.82,0,0,1,1-1.59l.21.21v-.21l.77.41.2-.2v-.21l-.2-.2.4-.77-.2-.2.2-.21h-.4l-.16.21h-.21l-.61-.21v.21l-.4.4v-.2l-1.18.41h-1.79v.36h-1c-.51,0-.77-1-.77-3l1,.61h.61v-.41l-.2-1,.57-.61h-.21l-.77.61-.4-.82.2-.16-.77-.4c.08.78.2,1.17.37,1.17l-.17.61c-.4,0-.61-1.44-.61-4.34,0-3.17.21-4.75.61-4.75l-.2-.2v-.21q.53-6,5.11-13.39Q178.81,155.14,191.11,155.15Zm-25.45,37.3h.2l.81.21v.16l-.61.61h-.2Zm1.58,2.36-.2.2v.2l2,1.18V196a1.46,1.46,0,0,0-.61-1.17l-.2.2h-.17Zm.2-13v.4l.61.21v-.21Zm.41,5.15v.37h.77l-.4-.37Zm.2-2.6v.61l.57-.2v-.41l-.2.21h-.2Zm3.74-2.15v.21l.2.56a3.51,3.51,0,0,1-1.79.61c0-.32-.25-.52-.77-.61l-.2.21v.2c1.06,0,1.58.66,1.58,2h-.2c-.27,0-.41.19-.41.57-1,.46-1.58.8-1.58,1h.2c1.19-.27,1.79-.67,1.79-1.22l1.18-.16v.16l.2-.16h.41l-.21.16v.21l.21.2.16-.2h.2l.41.4-.21.21h1v-.21l-.16-.61h.36v.41h.61l-.2-.2v-.37h.2l.77.57.61-.2-.2-.21v-.16l.2-1H175v-.37h-.2v.37c-.92-.19-1.38-.52-1.38-1v-.2l-.2.2H173a2.35,2.35,0,0,1-1-1.38Zm-3-8.28v.41h.61v-.41Zm0,6.29v.41l.41.41.2-.21v-.61Zm.82,8.12v.21l.56-.61H170Zm.77-1.38-.21.77c.27,0,.41-.2.41-.61v-.16Zm0,15v.61h.2l.57-.2-.37-.41Zm.2-20.9v.4h.57v-.2Zm1.18,11.81-.21.61.21.61h.2l.2-.61.57.2V193Zm-.21,9.5v.56l.21.21h.2v-.21l-.2-.56Zm1-11.65-.57-.21h-.2v.21l1.38.77h.2l-.2-1,.4-.4h-.2Zm.2,7.71.81.16.37-.57h-.77Zm2.56-6.74c0,.41-.12.61-.37.61l-.81-.2v.2l-.2-.2h-.16l-.82,1.17.21.82h.2a1.32,1.32,0,0,1,1-1.22H175v.2h-.4l.61,1h1l.2-.21h.21l.77.77h.2c-.81-1.3-1.41-1.94-1.79-1.94v-1ZM173,203.9l.41.36.2-.16v.16l.57-.16-.2-.61h-.57Zm.61-3.17.21.77h.36l.41-.36v-.41l-.21.21-.2-.21Zm.37-22.48v.36h.61v-.36Zm.4-13v.56c.57-.29.9-.62,1-1h-.16Zm.61,40.06h.21l.36-.41v-.2Zm.21-15.38.16.56.81-.77h-.41Zm.56,14.36.41.41h.41l.2-.77h-.2Zm.41,3.17v.2a1.41,1.41,0,0,0,1.38,1h1v-.21l-1-.16-.61.16.2-.16v-.4Zm.2-17.94.21.2v.21l1-.21v-.4h-.2Zm.57,15.18v.61h.41v-.61Zm1-26.83c0,.27-.21.41-.61.41v.36h.2l.77-.77Zm-.41,27.64.2.16-.2.21v.2l.41.41.57-.21v.41h.2c0-.27.27-.41.81-.41l.37-.4v-.37l-.57.37-1.18-.37Zm.2-3.57v.81h.21l.2-.81Zm1.18,7.31-.2.61h.2l.77-.41v-.2h-.36l-.21-.21Zm0-13.44v.2h.61v-.36Zm1,11.85-.37.61h.37l.2-.61Zm-.21-8.28.21.21v.2l-.21.57.21.2h.4C180.27,199.85,180.07,199.46,179.66,199.35Zm1.59,1-1,1,1.79-.57v-.2Zm-.57-3.17v.41l.36.4.41-.4-.57-.41Zm0,5.36v.77a1.4,1.4,0,0,0,1,1.38h.41v-.77Zm2.35,6.29v.2l.2.21h.61V209Zm1.18,1L184,210v.2h.41l-.2.2v.21H185V210Zm1-1,.37,1h.81v-.41c-.27,0-.41-.2-.41-.61Zm1.38-6.9.17.2v.21h-.37v.4l.57-.4.2.2v-.2l-.4-.41Zm3.33,9.66c.79,0,1.18.34,1.18,1l.2.56h-.2l-1.58.21v-.21l-.57-.77-.21.21h-.2v-.41Zm1.18-1.95h.2v1.59l-.2.16v.2l-.57-.2C190.7,210.2,190.89,209.62,191.11,209.62Zm2.76-54.47q9.09,0,17.57,6.9,5.28,5.56,6.13,9.3l-.4.56v.41l.4.41v-1.22c.35,0,.75,1.12,1.18,3.37h-.41v-.57c-.27,0-.4.39-.4,1.18-.24,0-.37.32-.37,1l-.2.2h-2.76l-1.38-1.17H213l.2.2v1l-1,.41h-1v-.41h-.4v.57l.6.81h-.2l-.2-.2h-.2v1l-2.56-.77v.41c0,.38.8.57,2.39.57,0,.21.4.48,1.18.81l.57-.2.2.2v-.2l.2.2H213l.77-.2.81.2.41-.61c-.41,0-.61-.32-.61-1l-.77.2-.61-.2v-.41a1.28,1.28,0,0,1,1-1.38l.41,1-.2.21v.4h.2q0-.53,1.38-.81l.2.2V178c-.35,0-.55.33-.61,1h.41v-.41c.4,0,.61-.26.61-.77l.16-.2v-.21h-.37v-.2h.37l.2.2h.2l2-1,.41.61-.2.57c.38,0,.56.73.56,2.19l-.56,1-.21-.2h-.4c0,.35-.33.56-1,.61l-.2.2v.37l1.38-.57-.2.2v.37h1l.41.4-.21.21v.2l.41.36-.2.21.2,1-.2,1.18c-.27,0-.41-.27-.41-.81h-.77v.81l-.2,1-.77-.2-.61.2.2.61.77-.4v.4h.61l.2-.2h.21v.2l-.21.57h1q0,7.88-6.7,17-8.73,8.88-19.52,8.89V213c.37,0,.56-.12.56-.36h-.77v-2.76h.37v-1.22h.61l.61.4h.16l.81-.4L194.88,207v-.77c0-1.4.53-2.19,1.59-2.35l-.21-.2.21-.21v-.77l-1,.16v-.56l1.79-.41v.2l-.2.21v.2h.4c0-.54,1.06-1.34,3.17-2.4,1.57-1.29,2.35-2.15,2.35-2.55h1.38v-.21l-.2-.2V197l-.2.16h-.37V197c0-.22.58-.68,1.75-1.38V195l-.17-1,.17-.21h.4l.2.21.21-.21h.2a.5.5,0,0,1,.57.57h.2v-.77h-1c-.27,0-.41-.2-.41-.61l.2-1.38h.21l.57.41h.2l-.2-.21c.08-.65.28-1,.6-1v-.41c-.51,0-.77-.13-.77-.4v-1.18l.17-.2v-.16l.2.16h.4c0-.25.21-.37.61-.37l.17-1h-.37v.4l-.41.41h-.6v-.2c.08-1.46.21-2.2.4-2.2h.41v-.16l-.61-1v-1h.4v-.2l.21.2h.2c.38,0,.57-.2.57-.61h.2v.41h2l.77-.2,2.4.61a2.29,2.29,0,0,1,1.54-1l.4.37h.21V183c-.41,0-.61-.12-.61-.36h.2l-.57-.81c-.13.35-.86.69-2.19,1l-.36-.4h-.41l-.2.2h-.21l-.2-.2v-.21l.41-1.17-1.18.4h-.61l-.2-.2-.2.2h-.17c-.19-.27-1-.4-2.39-.4l-.57-2.56c.24,0,.37-.27.37-.81l1-.21-2.19-1.94.2-.21v-.2l-2.35-3.94a15.08,15.08,0,0,0-7.51-4.95c-1.57-.19-2.36-.45-2.36-.77v-9.86Zm0,48.95h.4l-.2,1h-.2l-.37-.41v-.2Zm-.37,2.36h.37V208l-.37.36Zm3,3.93-.21.21v.4l.57.21v-.41Zm0-4.54v.2l.57.2v-.4Zm4.5,2.39v.16h.41l.2-.56h-.2Zm4-9.29.2.61h.17l.4-.41v-.41l-.4-.36C205.07,198.38,205,198.57,205,199Zm1.18-1.59.2.61h.2l.37-.4v-.41l-.37-.36C206.26,196.8,206.13,197,206.13,197.36Zm.77-15.79,1.38.41-.2.2v.41l.2.2V183l-.2.21a1.22,1.22,0,0,1-1.38-1.38Zm.4,16.61v.2l.21.16h.57v-.16Zm.21-7.72v.21l.2.61h.57l-.37-.82Zm0,4.35.4.4h.17l-.37-.4Zm.2-33.17v.21c.24,0,.37.2.37.61h.4v-.82Zm.77,23.71c0,.38-.13.57-.4.57l-.17-.21h-.2v.21c0,.32.72.59,2.15.81,0,.38.14.57.41.57l.2-.21v-.16c-.41,0-.61-.27-.61-.81l-.2.2h-.2c-.36,0-.55-.32-.57-1Zm.2,6.7-.2.77h.61l.77-.37-.2-.2v-.2l-.2.2h-.37l-.2-.2Zm1.18,5.11.2.2-.2.21h.61l-.2-.77Zm1.38-9.66-.2-.2h-.2l-.17.2v.41l.17-.21h.6l.61.41v-1h-.2Zm-.4.61v.2l.2.57-.2.2h.6v-.2l-.4-.77Zm.81-8.12v.61h.2l.2-.61Zm.77-1.38v.2l-.37.41V179Zm.4,10.07.21.61h.61v-.41Zm2.76-16c0,.37-.32.56-1,.56v.21h.77l1.18-.41v-.36h-.37l-.2.16h-.2Zm-.77,14.36v.21h1l-.41-.37Zm.37-5.52.2.21v.2l.2-.2h.82q.36,0,.36.81l.2.2h.21l.2-.2-.2-1.18h-1Zm2.6,1.38-.21,1,.57.2.61-.2.2.2v.16l.57-.16v-.81h-.16c0,.41-.14.61-.41.61q-.81,0-.81-1Zm.56,5.73-.2.61h.61v-.61Z"/><path class="b" d="M230.52,154.78v.45c-.27,0-.4.27-.4.81l-.25.25h-.2l-.81-.25v.25q0,.41,1.26.81l.2,1v.25h-.45v.2c.44,0,.65.14.65.4h.41l.2-1.25-.61-.61v-.41l1-.2h.61l.44-1.06v-.2l-.44-.4h-.21l-1,.2,0-.25h3.2a6.81,6.81,0,0,1,.13,1.51l.24-.25h.61l.4.45v1.62h-.6l.2.25v.2l-.2.61.6,1v33.37a6.58,6.58,0,0,0,3.58,6v.2l-.21.2h-.24l-.2-.2v.4h1.66v.41l2.23-.2h.49v8.28h-.08l-.2-.21h-1.18l-.24.21-.21-.21v.41l1.63.2v.41l-.21.2.49.53v3.09c-.35,0-1,.09-1.91.12a.54.54,0,0,1-.61-.61h-.2l-.2.61a18,18,0,0,1-5.32-.86q-9.9-3.69-12.3-17.61V162.05h1l1.05.65c0-.57.27-.85.81-.85,0-.81.14-1.22.41-1.22h1.05l.61.41.41-.65-.2-.21h-1.22v-.4a2,2,0,0,1-1.67-1l-.4.61c.4,0,.61.14.61.41V161h-1.26l-.41-.41v-1.06c.44,0,.65-.13.65-.4a1.73,1.73,0,0,1-1.46-1.06v-2.47l.77-.86h3.09a2.19,2.19,0,0,1-1.38.86v.4h.2l1.26-1,.61.2v-.45Zm-8.28,6.86v-2.07h.41V160l.2,1.46-.2.2Zm1.67-3.93v-.41h-1.26v.61Zm-.86,7.26.41-1.05v-.21l-.81.21.2,1.05Zm0,22.81.12.17,0-.25Zm.9-17.86v-1.86h-.45l-.2.61.44,1.25Zm3.69-7.22-.41-.45q-1.81.62-2.07,1.26l.21.2A3.14,3.14,0,0,1,227.6,162.7Zm-1.1,32.47h.21l.2-.81h-.41Zm2.76-36.61v-.2l-2.07-1.47v.82a2.17,2.17,0,0,1,1.06,1.86c.22,0,.42-.33.61-1Zm-2,35.35,0,0h.4v0Zm.45,4.59v.2l.41.41C228.13,198.7,228,198.5,227.72,198.5Zm.85,0v-.65h-.44C228.13,198.28,228.28,198.5,228.57,198.5Zm.61-3.73-.2,1c0,.41.14.61.41.61a3,3,0,0,1,.4-1.66L229,194h-.2l-.21.21Zm.94-33.33v-.81h-.65v.2l.2.61ZM229.79,202h.81v-.2l-.81-.41Zm1.54-39.29v-.45l-.4-.4v.85Zm.53,37.63V201h.41v-.65l.2-1h-.41Zm2.6-42v-.25a1.67,1.67,0,0,1-1.26-.81H233l-.61.61L233,159h.2A2,2,0,0,1,234.46,158.36Zm-.33,45.3h.21v-.61h-1C233.32,203.24,233.59,203.44,234.13,203.66Zm.94-41.81L234,161h-.61C233.4,161.39,234,161.66,235.07,161.85Zm-1.26,1.86v-1h-.41v1Zm.12,36.41.41.65v1l.61.2c.13-.81.74-1.22,1.82-1.22v-.24l-2.64-.61h-.2Zm.2-4.74.61.2v-.41l-.4-.4Zm1.34-40.6V155l-.2.2v.2a1.08,1.08,0,0,1-1-.65Zm-.73,51.15c.14.78.88,1.32,2.24,1.62h.2l.2-.2v-.2l-.2-.21c-1.49-.43-2.23-.84-2.23-1.21h-.21Zm.41,5.76h.45v-1h-.45ZM237,201.18l.2.2v.41h.61l.2-.21q0-.32-.81-.6Zm2.68,6.37.6-2.47v-.21l-1.86.65-.61-.44A2.79,2.79,0,0,0,239.66,207.55Zm-1.47,1.26h.21l-.41-.41h-.2Zm.21-6v.25l1.66-.45v-.81l-.2-.21-1.67.21Zm1.26,5.81h1v-.21l-1-.2Zm.2,2.27h1v-.41h-.61Zm21.23-56v.44l.61-.2,1.25,1h.21v-.4a2.23,2.23,0,0,1-1.38-.85h3.08l.77.85v2.47a1.72,1.72,0,0,1-1.46,1.06c0,.27.22.41.65.41v1.05l-.4.41h-1.26v-1.26c0-.27.2-.41.61-.41l-.41-.61a2,2,0,0,1-1.66,1v.4h-1.22l-.2.21.4.65.61-.41h1.06c.27,0,.4.41.4,1.22.54,0,.81.28.81.85l1.06-.65h1V195q-2.38,13.92-12.3,17.62a18.24,18.24,0,0,1-5.31.85l-.21-.61h-.2a.54.54,0,0,1-.61.61c-.92,0-1.55-.07-1.91-.12v-3.09l.49-.53-.2-.2v-.41l1.62-.2v-.4l-.2.2-.24-.2h-1.18l-.2.2h-.09v-8.28h.49l2.23.2v-.4h1.67v-.41l-.2.2H249l-.2-.2v-.2a6.55,6.55,0,0,0,3.57-6V160.26l.61-1-.2-.61v-.2l.2-.25h-.61v-1.62l.41-.45h.61l.24.25a7.55,7.55,0,0,1,.12-1.5H257l0,.24-1-.2h-.2l-.45.4v.2l.45,1.06h.61l1,.2v.41l-.61.61.21,1.26h.4c0-.27.22-.41.65-.41v-.2h-.44v-.25l.2-1q1.26-.41,1.26-.81v-.25l-.81.25H258l-.24-.25c0-.54-.14-.81-.41-.81v-.44Zm-11,48.87-1.67-.21-.2.21v.81l1.66.45v-.25Zm.44,3.93h-.61v.41h1Zm.57-4.75c-.54.19-.81.4-.81.61l.2.21h.61v-.41l.2-.2Zm2.52-48a1.08,1.08,0,0,1-1,.64v-.2l-.2-.2v-.24Zm.89,6.25h-.61l-1.05.81C253.92,161.74,254.47,161.47,254.47,161.12Zm-.93,33.73-.41.4v.41l.61-.2Zm2.64,4.14H256l-2.64.61v.24c1.09,0,1.7.41,1.83,1.22l.61-.21v-1l.41-.65Zm-1.51-39.94h.21l.61-1.06-.61-.61h-.21a1.64,1.64,0,0,1-1.25.81v.25A2,2,0,0,1,254.67,159.05Zm-.2,4.74v-1h-.41v1Zm1.22,25.94-1,.21v.2h1Zm-.29-22.48c.19.67.4,1,.61,1a2.19,2.19,0,0,1,1.06-1.87v-.81L255,167v.21Zm2.16,19.36-.61.44-1.87-.65v.21l.61,2.47A2.8,2.8,0,0,0,257.56,186.61Zm-1.95,21.27h-.45v1h.45Zm1.17-5.77h-1v.61h.2C256.51,202.51,256.78,202.3,256.78,202.11Zm.17-39.33v-.85l-.41.4v.45Zm.61,27.16h-.21l-.4.4h.2Zm.48,8.44h-.4l.2,1V200h.41v-.65Zm1.1-6.78-.2-.2h-.21l-.81.81a3,3,0,0,1,.41,1.66c.27,0,.4-.2.4-.61l-.2-1Zm1.46-4.34h-.2c0,.38-.75.78-2.24,1.21l-.2.21v.2l.2.2h.21c1.35-.29,2.09-.83,2.23-1.62Zm-2.15-22.53.2-.61v-.2H258v.81Zm1.13,30.56h-.44v.65C259.44,195.94,259.58,195.73,259.58,195.29Zm.74,5.16-.82.4v.21h.82Zm-.74-3.9.41-.4v-.21C259.72,195.94,259.58,196.15,259.58,196.55Zm.41-5.19v0h.41l0,0Zm2.56-27.57.2-.2q-.24-.65-2.07-1.26l-.4.45A3.18,3.18,0,0,1,262.55,163.79Zm-1.34,28h-.41l.21.82h.2Zm4-33.81v-.61H264v.41Zm-1.06,12,.45-1.26-.2-.61H264V170Zm.85-5,.21-1.05-.81-.21V164l.4,1.05Zm-.32,22.73,0,.25.12-.16Zm.53-26.05-.21-.21.21-1.46v-.4h.4v2.07Z"/><path class="b" d="M294.41,203.41l-.16.16h.16v9.79h-4.26l-21.23-58.21H281.5l12.91,35.39Zm-17.9-45.66h1.62l-.4-.65v-.41l.2-1h-.2l-.2.2-2.48,1v.21Zm1.62,7.67.41-.41v-.2h-.41l-.2.2v.41Zm1.43,3.94-.61-.25h-.21l.41.65ZM281,172.6v-.44h-.41l-.45.44Zm.77,4.06.2-.81-.61-.2-.44.61Zm.4,2.88-.4-.4h-.21v.4Zm1.67-2.07v-.4h-.65l-.41.4Zm.44,8-.2-1H283v.2c.56,0,.85.2.85.61v.4l-.45.65v.21C283.71,186.43,284,186.08,284.26,185.43Zm0-5V180q-.6,0-.6-.45h-.45v.21Zm2.85,12.22c0-.28.21-.41.64-.41V192h-.44v-.25l.2-1q1.26-.41,1.26-.81v-.25l-.81.25h-.21l-.24-.25c0-.54-.14-.81-.4-.81v-1.22h-.21l-.2,1-1-.21h-.2l-.44.41v.2l.44,1.06h.61l1,.2v.41l-.61.61.2,1.26Zm-1.14-10.27v-.41h-.65v.41Zm.73,14v-.85l-.41.4v.45Zm.57-17.82.4-.41v-.2l-.2-.2-.45.4v.41Zm2.11,6.62a2,2,0,0,1-1-1.63h-.4c0,.54-.29.81-.85.81v.21C287.07,184.81,287.82,185,289.34,185.15Zm-1.42,9.94.2-.61v-.2h-.65v.81Zm.61-7.87.2-.61h-.2l-.21-.21h-.61Zm1.38,13.39v-.93c-1.06,0-1.61-.33-1.67-1H288V199C288,199.57,288.66,200.12,289.91,200.61Zm1.26-5.11.2-.21a.54.54,0,0,1,.61-.61v-.44c-1,.49-1.42.84-1.42,1v.21Zm1,12.78-.2-1h-.65l.24,1Zm-.41-3.49c.19.68.39,1,.61,1a2.19,2.19,0,0,1,1.06-1.87v-.81l-2.07,1.46v.2Zm1.71-6h.2v-.4c-1-.27-1.46-.68-1.46-1.22h-.61V198l.61-.2Zm-1.06-4.95v-.2l.25-.2h-.86v.2Zm1.46,2.68c0-.19-.27-.39-.81-.61v.41ZM316.05,173l6.41,17.57v12.87l-.16.16h.16v9.79H318.2l-8.44-23.14-8.45,23.18h-4.42v-3.25l1.18.49.2.2h.2l-.2-1v-.41l.4-.65h-1.62l-.16.08V191L303.46,173ZM298.47,201.1v.4l.2.21h.41v-.21l-.41-.4Zm1.22-4.35-.41.65h.21l.6-.24Zm1-2.84.45.45h.41v-.45Zm.77-3.65.45.61.61-.2-.2-.82Zm.65-3.29v.41h.21l.4-.41ZM303.3,189l.41.41h.65V189Zm.65-9v.2l.45.65v.41c0,.41-.29.61-.86.61v.2h1.06l.2-1C304.53,180.44,304.25,180.09,304,180Zm-.24,6.74v.2h.44c0-.3.21-.44.61-.44v-.41Zm2.8.41v-1.63l-.65.41h-.41l-1-.21V186l.2.2,1,2.48h.2Zm-.81-7.11h.24a1.67,1.67,0,0,1,.81-1.26v-.2l-.61-.61-1.05.61v.2A2,2,0,0,1,305.7,180.07Zm.12,4.1v.41h.65v-.41Zm1-9.74c.54,0,.81.14.81.41l-.2.65.2.2h.65c0-.43.21-.65.61-.65v-.2a.92.92,0,0,1-1.05-1v-.65A2.15,2.15,0,0,0,306.79,174.43Zm.73,13.56v.4l.45.41.2-.2v-.21l-.4-.4Zm1.67-11.61a.89.89,0,0,0-.21-.16l0,0Zm2.35.53v-.41l-.4-.41v.41Zm.33,7.51-.13.4a.48.48,0,0,1,.17.41v.4l-.45.65v.21c.3-.06.58-.41.85-1.06l-.2-1Zm1.54-5.69.4-.16c-.37-1.06-.77-1.66-1.17-1.83l-.21.21A3.22,3.22,0,0,1,313.41,178.73Zm1.7,13.89c0-.28.22-.41.65-.41V192h-.44v-.25l.2-1q1.26-.41,1.26-.81v-.25l-.81.25h-.21l-.24-.25c0-.54-.14-.81-.41-.81v-1.22h-.2l-.2,1-1-.21h-.2l-.45.41v.2l.45,1.06h.61l1,.2v.41l-.61.61.21,1.26ZM314,182.35v-.41h-.65v.41Zm.16,3.16-.57-.2v.24l.2.2h.41v-.2Zm-.12-9.82h.4c0,.4.14.61.41.61v-.61l-.61-.2H314Zm.69,20.66v-.85l-.41.4v.45Zm.57-18.59v-.65l-.45-.41v.61Zm0,.77.4-.41v-.2l-.2-.2-.45.4v.41Zm2.11,6.62a2,2,0,0,1-1-1.63H316c0,.54-.29.81-.86.81v.21C315.11,184.81,315.87,185,317.39,185.15ZM316,195.09l.2-.61v-.2h-.65v.81Zm.6-7.87.21-.61h-.21l-.2-.21h-.61ZM318,200.61v-.93c-1.06,0-1.62-.33-1.67-1h-.2V199C316.09,199.57,316.71,200.12,318,200.61Zm1.25-5.11.21-.21a.54.54,0,0,1,.6-.61v-.44c-.94.49-1.42.84-1.42,1v.21Zm1,12.78-.21-1h-.65l.25,1Zm-.41-3.49c.19.68.39,1,.61,1a2.19,2.19,0,0,1,1.06-1.87v-.81l-2.07,1.46v.2Zm1.71-6h.2v-.4c-1-.27-1.46-.68-1.46-1.22h-.61V198l.61-.2Zm-1.06-4.95v-.2l.24-.2h-.85v.2Zm1.46,2.68c0-.19-.27-.39-.81-.61v.41Zm3.05,13.64,1.17.49.21.2h.2l-.2-1v-.41l.4-.65H325.1l-.16.08V191l13-35.76h12.58L329.36,213.4h-4.42Zm1.58-9.05v.4l.2.21h.41v-.21l-.41-.4Zm1.22-4.35-.41.65h.2l.61-.24Zm1-2.84.45.45h.4v-.45Zm.77-3.65.45.61.61-.2-.21-.82Zm.65-3.29v.41h.2l.41-.41Zm1.22,2.07.41.41h.65V189Zm.65-9v.2l.45.65v.41c0,.41-.29.61-.86.61v.2h1.06l.2-1C332.58,180.44,332.3,180.09,332,180Zm-.24,6.74v.2h.44c0-.3.21-.44.61-.44v-.41Zm3.49-12.87-.21,1.26.61.61v.41l-1,.2H334l-.45,1.05v.21l.45.4h.2l1-.2.2,1h.2v-1.21c.27,0,.41-.27.41-.81l.24-.25h.2l.82.25v-.25q0-.41-1.26-.81l-.2-1v-.24h.44v-.2c-.43,0-.65-.14-.65-.41Zm-1.38,10.27v.41h.65v-.41Zm1-14v.44l.41.41v-.85Zm.73,17.82v.4l.45.41.2-.2v-.21l-.41-.4Zm.08-6v.2c.57,0,.85.27.85.82h.41a2,2,0,0,1,1-1.63C336.41,181.51,335.65,181.71,335.65,182Zm.41-10.55v.81h.65V172l-.21-.61Zm.24,8.68h.61l.2-.2h.21l-.21-.61Zm.33-12.54v.24h.2c.05-.65.61-1,1.66-1v-.93C337.25,166.39,336.63,167,336.63,167.57Zm1.74,12.54v.21c0,.21.47.56,1.42,1.05v-.45a.54.54,0,0,1-.61-.6l-.2-.21Zm1-12.78-.25,1h.65l.21-1Zm-.21,3.49v.2l2.07,1.46v-.81a2.2,2.2,0,0,1-1-1.87c-.22,0-.42.34-.61,1Zm.86,7-.61-.2v.81H340c0-.54.48-.95,1.46-1.22v-.4h-.21Zm-.41,4.14v.2h.85l-.24-.2v-.2Zm.12-25v.24A1.67,1.67,0,0,1,341,158h.2l.61-.61-.61-1H341A2,2,0,0,1,339.71,156.94Zm.85,7.75.41.44c1.22-.4,1.91-.82,2.07-1.25l-.2-.21A3.16,3.16,0,0,1,340.56,164.69Zm.29,14.61v.41c.54-.22.81-.42.81-.61ZM342,166.51h.64l.41-.44h-.61Zm.85-3.73h.4l.41-.4h-.41Zm1.21,2.48v.4c-.4,0-.6.14-.6.41h.6l.21-.61v-.2Zm1.26-7.23c0,.54-.13.81-.4.81l-.65-.2-.21.2v.65c.44,0,.66.21.66.61h.2c0-.7.34-1,1-1h.65A2.15,2.15,0,0,0,345.35,158Z"/><path class="b" d="M390.61,157c0,.27-.63.63-1.9,1.09v.16l1,.21c0-.38.13-.57.4-.57l.17.93-.57.9v.2h-.57l-.4-.37v-.89a1.74,1.74,0,0,1-1.39-.57v.16l-.16-.16H387l-1.22.37-.4-.57.61-.53v-.16l-.41-.37a1.57,1.57,0,0,0-1.75,1.26h-.2l.2.16v.21l-.4.36h-1.34c0-.62-.14-.93-.41-.93h-.16a1.28,1.28,0,0,0-.77,1.3c.73,0,1.09.12,1.09.36h-.16l.16.53h.25c.27,0,.4-.17.4-.53l.17-.2h.61l.56.37c0,1-.44,1.46-1.34,1.46,0-.22-.32-.33-1-.33v-.4h-.61c-1.22,1.59-1.93,2.39-2.15,2.39s-.37.3-.37.89l-.2.17h-1l-1-.17v.17l.37.93-.2.16h.4c.27,0,.41-.24.41-.73.27,0,.4.31.4.94h.21l-.45,1h.24l.77.2v.33h-4.5l-1.34-.16-1.75.16H357.94a2.76,2.76,0,0,1-1.59-.69H356l.16.16v.53H356l-.2-.16-.94.16h-2.52l-1.21-1.06v-.89l.4-.57.17.16h.64l-.44-1.05h-.37v-1.1h.81l.33.73v.21h.2l.41-.37v-.2c-.35,0-.75-.37-1.18-1.1l.24-1.09c.87.13,1.3.32,1.3.57v.89q.57,0,.57.93l1.22.69h.16v-.69h1.18v.69l-1,1.1V165h.2c0-.59.39-.89,1.18-.89h.2c0,.49.32.85,1,1.1v.16h-.4v.36h.56l1.59-.36V165l-1.22-.57-.37.41-1.54-2,.21-.57H357c-.59,0-1-.47-1.17-1.42a1.44,1.44,0,0,0,1-1.13h.61l.4.36v.16l-.2.94.2-.16h.17l1.13.36v-.93l-.2.2h-.37v-.57l.82-.36h.2v-.17q-1.38,0-1.38-.36v-.37l.2-.57h-.2l-1.18-.36.21-.16v-.17l-.41-.36c0,.84-.26,1.26-.77,1.26l-.94.2-.2-1.46-.2.16h-1.38c0,.73-.14,1.1-.41,1.1h-1.17v-1.1c0-.22.39-.39,1.17-.53,0-.86.14-1.3.41-1.3h1.38v.37h.2c0-.49.12-.73.37-.73h3.45l1.21,1.3v-1.3h.21l.57.36h.61l.56-.36h11.49c.24,0,.37.19.37.57h.2c0-.38.13-.57.4-.57h4.31l.36.36v.21l-.2.16V156h.2l1-.89h7.59v.36l-.37.37v-.16l-.61.16v.41h1q.36,0,.36,1.05h.21l.4-1.3h.41l.2.25h.2l.21-.25A1.74,1.74,0,0,0,390.61,157Zm-38.72-1.47-.2.21h-.17l-.4-.37.2-.2h.2Zm1.54,9.67h-.16v.16c.11.73.3,1.09.57,1.09h.2v-.73Zm2-5.48h-1l-.37-.37,1.18-.32.2.16Zm.93-3.25a.5.5,0,0,1-.56-.57l-.37.41-.2-.25h-.37V157h.2a2.09,2.09,0,0,1,1.3-.33Zm2.52.89h-.2l-.33.37.33.36Zm1.22-.53h-.21l-.36.37v.16h.36l.21-.16Zm.57.53-.37.37.16.52h.21Zm1.38,7.84a.85.85,0,0,1-1-.94h-.2l-.2,1.46h1.17Zm.36-8.2h-.77l1.18.89.2-.16Zm3.33-.94h-.41v.41l-.2-.16h-.2l-.57.16v-.16l-.2-.57H364v.57a2.37,2.37,0,0,1,1.33,2.35h.41l-.41-1.66.41-.33Zm0,9.66-.2-.16h-.61c0,.35-.26.53-.77.53v.53a2.55,2.55,0,0,1,1.38-.73v.36h.2Zm1.91-3.08h-.37l-.2,1.09h-.16a2.36,2.36,0,0,1-1.38-.52h-.21v.32c0,.24.27.37.82.37l.2,1.09h.93Zm-1.22,50.62V192.86l.61-1-.2-.6v-.21l.2-.24h-.61v-1.58l.41-.45h.61l.24.24c0-1.49.27-2.23.81-2.23l-.2-.85.4-.37h1.46v-.4c.55,0,.82-.14.82-.41H369.3l-1-.24v.24l-1.26.41h-.2l-.41-.41v-7.71h.41v1h.4l.45-1.17,1-.41.21-.2h-.61l-.61.4h-.85l-.41-.4v-1.42l.2-.21c.41,0,.61-.21.61-.65l-.81-1.17V171h.41v-1l-.41-.6v-.21l.41-.4h.85v.4h-.45v.21h1.26v-.61H371v1h.2l1.26-1h1c.27,0,.41.2.41.61h1.26c0-.41.13-.61.4-.61H377l.41.4.61-.4h1.26l.4.4v1.63H379c0-.54-.42-.82-1.25-.82h-.21l.21.61-1,1.22V172l1.22-1h.45l.6.61v.2l-.2,1c-.84.19-1.26.39-1.26.61v.2l1.26-.61c.27,0,.41-.34.41-1h.4v5.68l-.61-.21-.4.37c.4,0,.74.28,1,.85v8.93h-.4v-.81h-1.06l1.46,1.58v2.44a1.72,1.72,0,0,1-1.46,1c0,.25.22.37.65.37v1.05l-.4.41h-1.26v-1.26c0-.27.2-.4.61-.4l-.41-.57a2,2,0,0,1-1.66,1v.41H374.5l-.21.2.41.65.61-.41h1.06c.26,0,.4.4.4,1.18.54,0,.81.29.81.85l1.06-.65h1v18.56Zm.2-25.25-.2-.16V186h.41c0,.4.28.76.85,1a1.06,1.06,0,0,1-1.06,1.18Zm.08-29h-.16v.69h.37v-.17Zm1.79,34.7h-.61l-1.05.77C367.94,194.29,368.49,194,368.49,193.71Zm-.85-36.37h-.16l-.57.53h.16Zm2.11,25.41h-.65a.9.9,0,0,1-1-1h-.2c0,.38-.21.56-.65.56V183l.21.21.64-.21c.27,0,.41.27.41.82A2.15,2.15,0,0,0,369.75,182.75Zm-1.06,8.93h.21l.6-1.05-.6-.61h-.21a1.64,1.64,0,0,1-1.25.81v.24A2,2,0,0,1,368.69,191.68Zm-.65-35-.2-.2h-.2v.2h.2l-.2.16v.37h.2Zm.45,39.66v-1h-.41v1Zm.57-31.91-.81-.16v.37h.81Zm1.09,6.58.21-.81-.61-.21-.45.61Zm-.4,7.31h.61l-.41-.45h-.65Zm1.62,13.39c0-.27.22-.4.65-.4v-.21h-.44v-.24l.2-1q1.26-.4,1.26-.81v-.24l-.82.24H372l-.24-.24c0-.54-.14-.81-.41-.81v-1.18h-.2l-.2,1-1-.21h-.2l-.45.37v.2l.45,1.06h.61l1,.2v.4l-.61.57.21,1.26Zm-1-34.7H370l-.57.56.41.9H370l.37-.37-.21-.89Zm.65,7.63h-.21l-1.38.2v.53c.63,0,.94.3.94.89a1.56,1.56,0,0,0,1.22-1Zm-1-3.09h-.36v.73l.52.57h.21v-.2Zm.57,12.3-.41-.4H370v.4Zm0,8.08H371l-.41-.37h-.41Zm.41,13.43v-.85l-.41.41v.44Zm.61-16.23v-.2l-.21-.61h-.61c0,.27.21.4.61.4v.41Zm0-16.28H371V163l.16.53h.41Zm.64,9v-.4h-.64l-.41.4Zm1.43,12.54a1.86,1.86,0,0,1-1-1.58h-.41c0,.54-.28.81-.85.81v.21C371.37,184,372.13,184.2,373.65,184.33Zm-1-9.7v-.4c-.41,0-.61-.14-.61-.41h-.44V174Zm-.41,19.45.21-.57v-.21h-.65v.78Zm.61-7.72.21-.56h-.21l-.2-.21H372Zm-.08-30.07h-.4l-.21.52.21.17h1v-.17Zm.29,35c.19.64.39,1,.61,1a2.17,2.17,0,0,1,1.05-1.83v-.77l-2.07,1.42v.21Zm1.82-31.95c-.65,0-1-.11-1-.32l.2-.57a2.1,2.1,0,0,1-1.34.36v.37c0,.21.31.39.94.53l.2-.17.4.69h-.4v.21h.77Zm-1.34,4.75h-.2l-.4.32h.6Zm3.86-6.37v.52h-.16l-.21-.89h-.4v.37h-.77l-1,.16-.36-1.06h.16l-.16-.93h-.21l-.2.16h-.2l.4,1.83h-.4v.36h1.42v.94L376,159l.57.16v1.26L376,161l-.2-.17h-.37l-.4.33h.6v.36l-.81.73h-.2l-.16-.2-.21.2h-.2l-1-.2v.37l1.54.2-.16.2v.37h.16c0-.25.34-.37,1-.37q.09-.93.57-.93l1.59.73v-.57h-.45v-.53l.24-.16v-.2l1,.2h.16V161l-1.14-.17.21-.2v-.2l-.61-.21V159h-.81v-.78h.4v.41h.2l.61-.2v.2c0,.27.45.5,1.34.69v-.69Zm-2.68,15.91-.2-1h-1.06v.21c.57,0,.85.2.85.61v.4l-.44.61v.2C374.15,174.58,374.43,174.24,374.7,173.62Zm0-8.65h-.77c0,.19.26.38.77.57Zm0,20.62.2-.2a.54.54,0,0,1,.61-.61v-.45c-.94.49-1.42.84-1.42,1.06v.2Zm1.87,10.72.2-.2c-.16-.41-.85-.82-2.07-1.22l-.41.44A3.23,3.23,0,0,1,376.57,196.31Zm.4-7.51h.21v-.41c-1-.27-1.46-.66-1.46-1.17h-.61V188l.61-.16Zm-1.05-4.87v-.16l.24-.21h-.85v.21Zm.45-13.36v-.4h-.65v.4Zm1.21,11.73v-.77c-1.05,0-1.61-.27-1.66-.81h-.2v.2Q375.72,181.75,377.58,182.3Zm-.2,4.27c0-.19-.27-.4-.81-.61v.4Zm1.87,4.06V190H378v.4Zm-1.06,11.77.45-1.22-.2-.61H378v1.83Zm.85-21.27-.2-.85h-.65l.25.85Zm0,16.44.21-1.06-.81-.2v.2l.4,1.06Zm15.47-33.69-.37,1.09h.37v1.79H394l.16-1.22v-.2H394l-.65,1.42H391v-.53h-.41c0,.35-.12.53-.36.53h-9.34q0-.69-1.38-.69l-.2.16-.37-.53v-.52c0-.25.33-.37,1-.37v-.2c-.65,0-1-.18-1-.53v-.89l.37-.37h.81c0,.35.14.53.41.53l1-.16-.2-.21v-.16l-.21.16h-.56l-.41-.36v-.57a1.63,1.63,0,0,1,1.7-.89h.25l.2.57,1.14-.37c0,.46.32.69,1,.69v1.46h.81v1.1l.17.2V165c.4,0,.61-.24.61-.73l1.17-.16-.16-.2v-.17l-.2.17h-.45l-.57-.53-.2-.73H385l.2-.2v-.37l-1.17-.32.36-.73H384v-1.83h.77l1,.16c0-.35.12-.53.37-.53H387l.16.53q-1.38.33-1.38,1.5H386a1.59,1.59,0,0,1,1.33-.93l.41.32-.2.21v.93h1.18c.26,0,.4.18.4.53h.41a1,1,0,0,1,1.09-1.06l-.16-.2v-.2l.37-1.63-.21-.16H391c0,.35.13.53.4.53H392v-.37h-.4l.2-.93v-.33h-.2v.33h-.37l-.24-.69h1v.53h.77l.21-.17h.16a1.19,1.19,0,0,0,1.18.69v.57l-.57.53-.45-.32-1.09.32v.37H393v.2l-.41.32-.2-.16h-.16v.37l.36,1.09H393a3.65,3.65,0,0,1,1.34-2.35h.16Zm-15.26,30.4-.21-.2.21-1.42v-.41h.4v2Zm2.84-37.63-.25-.2h-.52l.52.53.25-.17Zm1.54,7.06h-.2l-.57.17v.73h.41l.36-.73Zm.41,1.63-.41.36v.37h.2l.57-.2v-.17Zm.77-9.3-.57-.16-.2.16v.25l.56.36.21-.2Zm3.9,8.2c-.68,0-1.07-.17-1.18-.53l.2-.73-.2-1.25H387l.53,2.51.36.37h.41Zm2.55-9.09v.36l-1,.21-1.34-.21.4-.36Zm-1.58,8.73h-.57v.36l.57-.16Zm1.34-.69h-.41c0,.21-.24.32-.73.32v.37l.94-.53h.2Zm1.58-.57-.2-.2h-.16l-.61.56.2.21v.32c0,.6-.27.89-.81.89V165h.24A4.78,4.78,0,0,0,392.6,162.62ZM391,165.18v.69l.4-.33Zm3.49-8.08-.93.24c-.38,0-.9-.49-1.55-1.46h-.2v-.73h1.5l1.18.32Z"/><path class="b" d="M163.23,142.59q-2.29-2.29-.84-6.22a17.2,17.2,0,0,1,1.34-2.83q.84-1.42,1.74-2.88c.56-.9,1.1-1.81,1.63-2.72a15.83,15.83,0,0,0,1.17-2.49c.3-.75.4-1.25.28-1.49a1.81,1.81,0,0,0-.28-.48.71.71,0,0,0-.17-.11.62.62,0,0,0-.39,0,7.44,7.44,0,0,0-2.94,1.65,32.41,32.41,0,0,0-3.81,3.76q-2,2.33-4.29,5.41c-1.49,2.05-2.95,4.26-4.37,6.61L151,142.87a1.9,1.9,0,0,1-1.26,1,2.1,2.1,0,0,1-1.59-.25,1.92,1.92,0,0,1-1-1.26,2.13,2.13,0,0,1,.25-1.6l1.17-2q1.18-2,2.67-4.54c1-1.72,2-3.51,3.08-5.36s2.11-3.71,3.14-5.6,2-3.66,2.83-5.32,1.58-3.14,2.18-4.43a20,20,0,0,0,1.18-3,2.15,2.15,0,0,1,1-1.31,1.78,1.78,0,0,1,1.6-.2,2.07,2.07,0,0,1,1.28,1,1.77,1.77,0,0,1,.17,1.57,15.5,15.5,0,0,1-.81,2.16c-.43,1-.93,2.08-1.51,3.28s-1.19,2.42-1.82,3.67-1.22,2.36-1.74,3.33a15.6,15.6,0,0,1,2.35-2.38,10.34,10.34,0,0,1,2.44-1.48,5.56,5.56,0,0,1,2.33-.48,3.66,3.66,0,0,1,2,.64,4.19,4.19,0,0,1,1,.93,4.23,4.23,0,0,1,.67,1.4,6.12,6.12,0,0,1,.17,1.88,9.4,9.4,0,0,1-.51,2.41,17.48,17.48,0,0,1-1.37,3c-.58,1-1.19,2-1.82,3.06-.34.52-.71,1.13-1.12,1.82s-.79,1.36-1.12,2a9.6,9.6,0,0,0-.73,1.76,1.11,1.11,0,0,0,.11,1.12c.37.38,1,.29,1.88-.25a19.39,19.39,0,0,0,2.91-2.3,38.3,38.3,0,0,0,3.17-3.36q1.56-1.87,2.69-3.45a2.25,2.25,0,0,1,1.06-.84,1.31,1.31,0,0,1,.92,0,.82.82,0,0,1,.45.68,1.65,1.65,0,0,1-.36,1.17,13.91,13.91,0,0,0-.79,1.26c-.37.66-.84,1.41-1.4,2.27s-1.2,1.79-1.93,2.78a28.77,28.77,0,0,1-2.35,2.8,17.3,17.3,0,0,1-2.64,2.27,7.53,7.53,0,0,1-2.77,1.23,3.48,3.48,0,0,1-2.07-.2A5,5,0,0,1,163.23,142.59Z"/><path class="b" d="M178.58,143.15a6.22,6.22,0,0,1-1.2-1,4.82,4.82,0,0,1-.93-1.6,6.51,6.51,0,0,1-.3-2.27,10.59,10.59,0,0,1,.58-3.05,22.13,22.13,0,0,1,1.74-3.93q1.13-2,2.19-3.86c.52-.83,1-1.7,1.56-2.64a6.25,6.25,0,0,0,.85-2,2.07,2.07,0,0,1,.6-1.51,2,2,0,0,1,1.44-.62,2.06,2.06,0,0,1,1.49.59,2.18,2.18,0,0,1,.67,1.49,6.44,6.44,0,0,1-.78,2.8c-.51,1-1.25,2.39-2.21,4-.44.79-1,1.69-1.55,2.72a30.61,30.61,0,0,0-1.54,3,11,11,0,0,0-.84,2.66c-.13.8,0,1.33.47,1.6a1.31,1.31,0,0,0,.42.05,2.14,2.14,0,0,0,.82-.22,9.88,9.88,0,0,0,1.25-.73,17.14,17.14,0,0,0,1.75-1.4,27.31,27.31,0,0,0,1.94-1.94c.62-.69,1.21-1.36,1.75-2s1-1.24,1.43-1.77.73-1,.95-1.29a2.36,2.36,0,0,1,1-.84,1.23,1.23,0,0,1,.93,0,.88.88,0,0,1,.47.7,1.57,1.57,0,0,1-.42,1.18,13.38,13.38,0,0,0-1,1.62c-.48.86-1.1,1.83-1.85,2.92s-1.58,2.19-2.51,3.33a19.18,19.18,0,0,1-2.92,2.92,8.13,8.13,0,0,1-3.14,1.59A3.94,3.94,0,0,1,178.58,143.15Zm12.55-27.23a2.56,2.56,0,1,1-.75-1.88A2.57,2.57,0,0,1,191.13,115.92Z"/><path class="b" d="M193.43,130.26c.52-.82,1-1.71,1.57-2.69s1-2,1.46-3a29.67,29.67,0,0,0,1.15-3,16.81,16.81,0,0,0,.64-2.57,2.68,2.68,0,0,1,.84-1.71,1.82,1.82,0,0,1,1.35-.53,1.31,1.31,0,0,1,1.06.78,3.09,3.09,0,0,1,0,2.19,9.37,9.37,0,0,1,2.58.47,4.13,4.13,0,0,1,2.13,1.6,5,5,0,0,1,.67,3.5,13.35,13.35,0,0,1-1.91,4.79c-1.12,1.87-2,3.35-2.6,4.46a14,14,0,0,0-1.32,3,7.82,7.82,0,0,0-.31,1.43c0,.32,0,.51.09.59a3.35,3.35,0,0,0,.78-.25,7.13,7.13,0,0,0,1.71-1.21,24.92,24.92,0,0,0,2.66-2.83,45.88,45.88,0,0,0,3.59-5.13,2.7,2.7,0,0,1,1.06-1,1.24,1.24,0,0,1,1-.09.82.82,0,0,1,.51.68,2,2,0,0,1-.42,1.28c-.6,1-1.33,2.19-2.19,3.65s-1.77,2.85-2.74,4.2a24.42,24.42,0,0,1-3,3.47,4.45,4.45,0,0,1-2.94,1.46,3.85,3.85,0,0,1-2.75-1,4.36,4.36,0,0,1-1.51-2.44,6.9,6.9,0,0,1,.22-3.19,22.94,22.94,0,0,1,1.68-4.12q1.18-2.3,2.86-5.15a8.85,8.85,0,0,0,1.29-2.8c.08-.57.11-.86.11-.9A1.81,1.81,0,0,0,202,124a7.69,7.69,0,0,0-2.44.14c-.37.71-.77,1.43-1.18,2.18s-.8,1.45-1.17,2.1-.72,1.25-1,1.77a10.73,10.73,0,0,1-.76,1.12,2.12,2.12,0,0,1-1,.81,1.31,1.31,0,0,1-.95,0,.75.75,0,0,1-.45-.65A2.23,2.23,0,0,1,193.43,130.26Z"/><path class="b" d="M216,143.88a5.83,5.83,0,0,1-3.58-1.12,5.73,5.73,0,0,1-2.58-4,11.59,11.59,0,0,1,.78-5.94,22.49,22.49,0,0,1,2.41-4.73,26,26,0,0,1,3.53-4.29c2.62-2.5,5.2-3.87,7.74-4.09,0,0,.05,0,.05-.06a2.14,2.14,0,0,1,2-.39,5.78,5.78,0,0,1,4,3.81,10.7,10.7,0,0,0,2.49.73,12.14,12.14,0,0,0,2.61.17,12.38,12.38,0,0,0,2.43-.34,5.38,5.38,0,0,0,1.94-.84,1.3,1.3,0,0,1,1-.28.88.88,0,0,1,.65.48,1.33,1.33,0,0,1,0,.89,1.68,1.68,0,0,1-.7.93,10,10,0,0,1-2.61,1.32,18.16,18.16,0,0,1-2.89.7,19.07,19.07,0,0,1-5.43.05,20.64,20.64,0,0,1-1.15,4.82,25.86,25.86,0,0,1-2.1,4.4,22,22,0,0,1-2.75,3.67,14.61,14.61,0,0,1-3.08,2.58A9.17,9.17,0,0,1,216,143.88Zm8.35-21.07A5.34,5.34,0,0,0,221.7,124a16.75,16.75,0,0,0-2.77,2.71,25.7,25.7,0,0,0-2.5,3.65,24.76,24.76,0,0,0-1.82,3.92,6.42,6.42,0,0,0-.36,1,7.71,7.71,0,0,0-.28,1.43,4.66,4.66,0,0,0,.05,1.45,1.75,1.75,0,0,0,.7,1.1q1.51,1,3.93-.51a12.23,12.23,0,0,0,2.91-2.49,26.43,26.43,0,0,0,2.52-3.42,20.86,20.86,0,0,0,1.82-3.67,9.49,9.49,0,0,0,.7-3.36,9,9,0,0,1-1.29-1.18A4.23,4.23,0,0,1,224.36,122.81Z"/><path class="b" d="M290.14,144a6.36,6.36,0,0,1-4.7-1.68,6.11,6.11,0,0,1-1.74-2.83,9.13,9.13,0,0,1-.22-3.84,16.07,16.07,0,0,1,.92-3.69,22.85,22.85,0,0,1,1.88-3.87,33.74,33.74,0,0,1,2.74-3.81,15.74,15.74,0,0,1,3.08-2.86,8.87,8.87,0,0,1,4.46-2,7.84,7.84,0,0,1,3.17.3,4.86,4.86,0,0,1,3.25,3.7,6,6,0,0,1-.06,3.14,7.27,7.27,0,0,1-1.68,3,2.13,2.13,0,0,1-1.46.73,2,2,0,0,1-1.51-.56,2.32,2.32,0,0,1-.7-1.46,1.87,1.87,0,0,1,.53-1.51,6.08,6.08,0,0,0,.78-1.1,3.56,3.56,0,0,0,.45-1.14,1.79,1.79,0,0,0-.05-1,1.19,1.19,0,0,0-.73-.67,2.37,2.37,0,0,0-1.85.22,9.49,9.49,0,0,0-2.24,1.57,22.06,22.06,0,0,0-2.38,2.55,27.48,27.48,0,0,0-2.22,3.16,25.5,25.5,0,0,0-1.4,2.83,12.12,12.12,0,0,0-.75,2.61,7.39,7.39,0,0,0-.06,2.18,2.35,2.35,0,0,0,.7,1.46,3.65,3.65,0,0,0,3.14.73A13.84,13.84,0,0,0,296,138.5a28.36,28.36,0,0,0,5-3.42,29.28,29.28,0,0,0,4.54-4.82,2.1,2.1,0,0,1,1.06-.89,1.14,1.14,0,0,1,.93,0,.87.87,0,0,1,.42.72,2,2,0,0,1-.45,1.26,62,62,0,0,1-4.15,5,34.43,34.43,0,0,1-4.34,4,22.14,22.14,0,0,1-4.43,2.66A10.66,10.66,0,0,1,290.14,144Z"/><path class="b" d="M314.57,142.59q-2.29-2.29-.84-6.22a17.28,17.28,0,0,1,1.35-2.83q.84-1.42,1.74-2.88c.56-.9,1.1-1.81,1.62-2.72a16,16,0,0,0,1.18-2.49,2.35,2.35,0,0,0,.28-1.49,2.14,2.14,0,0,0-.28-.48l-.17-.11a.63.63,0,0,0-.39,0,7.31,7.31,0,0,0-2.94,1.65,33.2,33.2,0,0,0-3.82,3.76q-2,2.33-4.28,5.41c-1.5,2.05-2.95,4.26-4.37,6.61l-1.29,2.07a2,2,0,0,1-1.26,1,2.12,2.12,0,0,1-1.6-.25,2,2,0,0,1-1-1.26,2.13,2.13,0,0,1,.25-1.6l1.18-2q1.17-2,2.66-4.54l3.08-5.36c1.07-1.84,2.11-3.71,3.14-5.6s2-3.66,2.83-5.32,1.59-3.14,2.19-4.43a20.83,20.83,0,0,0,1.17-3,2.18,2.18,0,0,1,1-1.31,1.79,1.79,0,0,1,1.6-.2,2.12,2.12,0,0,1,1.29,1,1.81,1.81,0,0,1,.17,1.57,16.94,16.94,0,0,1-.81,2.16c-.44,1-.94,2.08-1.52,3.28s-1.19,2.42-1.82,3.67-1.21,2.36-1.74,3.33a15.64,15.64,0,0,1,2.36-2.38,10.29,10.29,0,0,1,2.43-1.48,5.59,5.59,0,0,1,2.33-.48,3.67,3.67,0,0,1,2,.64,4.37,4.37,0,0,1,.95.93,4,4,0,0,1,.67,1.4,5.82,5.82,0,0,1,.17,1.88,9.78,9.78,0,0,1-.5,2.41,18.37,18.37,0,0,1-1.38,3c-.58,1-1.18,2-1.82,3.06-.33.52-.71,1.13-1.12,1.82s-.78,1.36-1.12,2a9.6,9.6,0,0,0-.73,1.76,1.11,1.11,0,0,0,.11,1.12c.38.38,1,.29,1.88-.25a18.9,18.9,0,0,0,2.91-2.3,35.53,35.53,0,0,0,3.17-3.36c1.05-1.25,1.94-2.4,2.69-3.45a2.29,2.29,0,0,1,1.06-.84,1.34,1.34,0,0,1,.93,0,.86.86,0,0,1,.45.68,1.71,1.71,0,0,1-.37,1.17,12.43,12.43,0,0,0-.78,1.26c-.37.66-.84,1.41-1.4,2.27s-1.21,1.79-1.93,2.78a28.87,28.87,0,0,1-2.36,2.8,17.72,17.72,0,0,1-2.63,2.27,7.57,7.57,0,0,1-2.78,1.23,3.48,3.48,0,0,1-2.07-.2A5,5,0,0,1,314.57,142.59Z"/><path class="b" d="M332.9,143.94a7.13,7.13,0,0,1-4.93-1.52,6.22,6.22,0,0,1-1.94-3.25,9.94,9.94,0,0,1-.08-3.89,16.3,16.3,0,0,1,1.23-4.06,24.67,24.67,0,0,1,2.07-3.76,25.34,25.34,0,0,1,3.23-3.95,19,19,0,0,1,3.78-3,10.48,10.48,0,0,1,3.89-1.4,5.69,5.69,0,0,1,3.62.7,5,5,0,0,1,2.07,2.16,5.2,5.2,0,0,1,.45,3,7.67,7.67,0,0,1-.73,2.64A11.59,11.59,0,0,1,344,130.1a10.64,10.64,0,0,1-2.16,2,10.2,10.2,0,0,1-2.63,1.29,14.4,14.4,0,0,1-1.49.3,7.19,7.19,0,0,1-1.87.06,7.62,7.62,0,0,1-2.1-.5A10.62,10.62,0,0,1,331.5,132a15.33,15.33,0,0,0-.93,2.21,10.2,10.2,0,0,0-.47,2,5.45,5.45,0,0,0,0,1.77,2.6,2.6,0,0,0,.67,1.32,3.81,3.81,0,0,0,3.31.92,13.11,13.11,0,0,0,4.59-1.57,27.09,27.09,0,0,0,5-3.5,30.91,30.91,0,0,0,4.54-4.88,2.3,2.3,0,0,1,1.09-.92,1.22,1.22,0,0,1,1,0,.87.87,0,0,1,.42.73,2,2,0,0,1-.51,1.26,46.65,46.65,0,0,1-8.26,8.94c-2.75,2.18-5.32,3.39-7.71,3.61a3.79,3.79,0,0,1-.67.06Zm.89-15.58a4.21,4.21,0,0,0,4.15.95,5.53,5.53,0,0,0,2.35-1.37,8.53,8.53,0,0,0,1.6-2,5,5,0,0,0,.67-2,1.16,1.16,0,0,0-.47-1.23,1.84,1.84,0,0,0-1.49-.06,8.75,8.75,0,0,0-2.16,1,15.45,15.45,0,0,0-2.4,2A17.13,17.13,0,0,0,333.79,128.36Z"/><path class="b" d="M349.65,143.88a4,4,0,0,1-1.26-.2,6.89,6.89,0,0,1-1.2-.53,4.42,4.42,0,0,1-1.07-.9,3.65,3.65,0,0,1-.78-1.45,7.62,7.62,0,0,1-.31-2.1,10.41,10.41,0,0,1,.42-2.89,47.44,47.44,0,0,1,4.93-10.53q.62-1.07,1.29-2.13L353,121c.56-.94,1.14-1.89,1.74-2.86s1.14-1.91,1.63-2.83.9-1.77,1.26-2.58a7.64,7.64,0,0,0,.64-2.1,1.86,1.86,0,0,1,.81-1.34,2.14,2.14,0,0,1,1.6-.39,2,2,0,0,1,1.37.81,2,2,0,0,1,.42,1.54,16.9,16.9,0,0,1-2.1,5.57q-1.71,3.06-3.84,6.42-.62,1-1.29,2.07L354,127.41a61.05,61.05,0,0,0-2.88,5.4,31.1,31.1,0,0,0-1.6,4.12,6.15,6.15,0,0,0-.31,2c.06.37.12.58.2.62a1.26,1.26,0,0,0,.42.05,2.26,2.26,0,0,0,.84-.22,8.27,8.27,0,0,0,1.29-.73,18.23,18.23,0,0,0,1.77-1.4,27.51,27.51,0,0,0,2-1.94c.63-.69,1.21-1.36,1.73-2s1-1.24,1.4-1.77.73-1,1-1.29a1.78,1.78,0,0,1,1-.81,1.28,1.28,0,0,1,.92.06.9.9,0,0,1,.45.67,1.68,1.68,0,0,1-.37,1.15,14.63,14.63,0,0,0-.92,1.4c-.43.71-1,1.53-1.6,2.47s-1.34,1.91-2.13,2.94a27,27,0,0,1-2.43,2.8,16.37,16.37,0,0,1-2.55,2.1A4.54,4.54,0,0,1,349.65,143.88Z"/><path class="b" d="M361.14,143.88a4,4,0,0,1-1.26-.2,6.65,6.65,0,0,1-1.21-.53,4.38,4.38,0,0,1-1.06-.9,3.79,3.79,0,0,1-.79-1.45,8,8,0,0,1-.31-2.1,11.22,11.22,0,0,1,.42-2.89,47.57,47.57,0,0,1,4.94-10.53c.41-.71.84-1.42,1.28-2.13L364.5,121c.56-.94,1.14-1.89,1.74-2.86s1.14-1.91,1.62-2.83.91-1.77,1.26-2.58a7.7,7.7,0,0,0,.65-2.1,1.86,1.86,0,0,1,.81-1.34,2.13,2.13,0,0,1,1.6-.39,2,2,0,0,1,1.37.81,2.06,2.06,0,0,1,.42,1.54,16.9,16.9,0,0,1-2.1,5.57q-1.71,3.06-3.84,6.42-.61,1-1.29,2.07c-.45.71-.88,1.4-1.29,2.08a58.51,58.51,0,0,0-2.88,5.4,29.76,29.76,0,0,0-1.6,4.12,5.88,5.88,0,0,0-.31,2c.06.37.12.58.2.62a1.22,1.22,0,0,0,.42.05,2.36,2.36,0,0,0,.84-.22,9.3,9.3,0,0,0,1.29-.73,17.12,17.12,0,0,0,1.76-1.4,25.57,25.57,0,0,0,2-1.94q1-1,1.74-2c.52-.65,1-1.24,1.4-1.77s.73-1,1-1.29a1.81,1.81,0,0,1,1-.81,1.31,1.31,0,0,1,.93.06.86.86,0,0,1,.44.67,1.61,1.61,0,0,1-.36,1.15,12.86,12.86,0,0,0-.92,1.4c-.43.71-1,1.53-1.6,2.47s-1.35,1.91-2.13,2.94a28.31,28.31,0,0,1-2.44,2.8,15.92,15.92,0,0,1-2.55,2.1A4.54,4.54,0,0,1,361.14,143.88Z"/><path class="b" d="M375.93,143.94a7.13,7.13,0,0,1-4.93-1.52,6.2,6.2,0,0,1-1.93-3.25,10.12,10.12,0,0,1-.09-3.89,17.18,17.18,0,0,1,1.23-4.06,23.88,23.88,0,0,1,2.08-3.76,25.27,25.27,0,0,1,3.22-3.95,19,19,0,0,1,3.78-3,10.52,10.52,0,0,1,3.9-1.4,5.67,5.67,0,0,1,3.61.7,4.9,4.9,0,0,1,2.07,2.16,5.2,5.2,0,0,1,.45,3,7.45,7.45,0,0,1-.73,2.64,11.59,11.59,0,0,1-1.54,2.41,10.31,10.31,0,0,1-4.79,3.25,14.16,14.16,0,0,1-1.48.3,7.27,7.27,0,0,1-1.88.06,7.79,7.79,0,0,1-2.1-.5,10.62,10.62,0,0,1-2.27-1.26,18,18,0,0,0-.93,2.21,10.2,10.2,0,0,0-.47,2,5.45,5.45,0,0,0,.05,1.77,2.61,2.61,0,0,0,.68,1.32,3.78,3.78,0,0,0,3.3.92,13.23,13.23,0,0,0,4.6-1.57,27.78,27.78,0,0,0,5-3.5,30.85,30.85,0,0,0,4.53-4.88,2.27,2.27,0,0,1,1.1-.92,1.19,1.19,0,0,1,.95,0,.87.87,0,0,1,.42.73,1.88,1.88,0,0,1-.5,1.26,46.67,46.67,0,0,1-8.27,8.94c-2.75,2.18-5.31,3.39-7.7,3.61a3.91,3.91,0,0,1-.68.06Zm.9-15.58a4.19,4.19,0,0,0,4.14.95,5.63,5.63,0,0,0,2.36-1.37,8.73,8.73,0,0,0,1.59-2,5.05,5.05,0,0,0,.68-2,1.18,1.18,0,0,0-.48-1.23,1.84,1.84,0,0,0-1.49-.06,8.54,8.54,0,0,0-2.15,1,15,15,0,0,0-2.41,2A17.08,17.08,0,0,0,376.83,128.36Z"/><polygon class="b" points="246.43 263.45 62.43 263.45 62.43 130.77 168.72 37.06 244.48 101.08 237.38 109.49 168.87 51.59 73.43 135.74 73.43 252.45 235.43 252.45 235.43 224.45 246.43 224.45 246.43 263.45"/><path class="b" d="M146.42,114.87a3.38,3.38,0,0,0,1-2.41,2.14,2.14,0,0,0-1.46-1.62,5.93,5.93,0,0,0-2.13-.45,9.41,9.41,0,0,0-2.23.21,15,15,0,0,0-2.2.66,20.67,20.67,0,0,0-2,.91,22.88,22.88,0,0,0-5.46,3.82,26.92,26.92,0,0,0-4.3,5.14,25.82,25.82,0,0,0-2,4.11,20.53,20.53,0,0,0-1.27,4.91,12.93,12.93,0,0,0,.24,4.75,5.93,5.93,0,0,0,2.47,3.58,8.36,8.36,0,0,0,2.68,1.28,11.45,11.45,0,0,0,2.86.37,13.05,13.05,0,0,0,3-.35,27.9,27.9,0,0,0,2.86-.82,18.15,18.15,0,0,0,3.64-1.86,14.29,14.29,0,0,0,3-2.65,11.53,11.53,0,0,0,.69-1l.61-1.09a6.74,6.74,0,0,1,.66-1,2.56,2.56,0,0,1,.9-.74,1.66,1.66,0,0,1,1.59-.21,1.53,1.53,0,0,1,.77,1,4.16,4.16,0,0,1,.08,1.59,4.07,4.07,0,0,1-.42,1.46,14.89,14.89,0,0,1-2.1,2.89,21.17,21.17,0,0,1-2.62,2.42,25.09,25.09,0,0,1-6.34,3.29,17.21,17.21,0,0,1-7,.95,14.61,14.61,0,0,1-5.67-1.59,10.13,10.13,0,0,1-4.25-4,11.94,11.94,0,0,1-1.38-3.72,17.45,17.45,0,0,1-.29-3.95,18.86,18.86,0,0,1,.59-4,21.67,21.67,0,0,1,1.29-3.74,28.25,28.25,0,0,1,4-6.55,32.44,32.44,0,0,1,5.52-5.34c.92-.67,1.9-1.33,3-2a19.51,19.51,0,0,1,3.26-1.64,18.38,18.38,0,0,1,3.48-1,11.31,11.31,0,0,1,3.58-.06,8.4,8.4,0,0,1,3.15,1.12,7.22,7.22,0,0,1,2.26,2.09,6.16,6.16,0,0,1,1,2.82,7,7,0,0,1-.45,3.31A10.29,10.29,0,0,1,149,119a19.24,19.24,0,0,1-2.92,2.7,20.79,20.79,0,0,1-3.42,2.1,19,19,0,0,1-3.45,1.3,2.77,2.77,0,0,1-1.28,0,2.6,2.6,0,0,1-1.14-.53,2.81,2.81,0,0,1-.79-1,2.73,2.73,0,0,1-.29-1.27,2.39,2.39,0,0,1,.45-1.46,4.49,4.49,0,0,1,1.11-1.06,6.19,6.19,0,0,1,1.43-.72l1.46-.47a17.16,17.16,0,0,0,3.56-1.44A9,9,0,0,0,146.42,114.87Z"/><path class="b" d="M276.2,117.31a34.62,34.62,0,0,1,3.34,2.42,11.48,11.48,0,0,1,2.65,3.1,12.6,12.6,0,0,1,1.86,7.22,15,15,0,0,1-2.12,7.16,16.49,16.49,0,0,1-4.88,5.07,21.33,21.33,0,0,1-6.61,3,24.89,24.89,0,0,1-7.3.77,18.93,18.93,0,0,1-6.89-1.57,15.49,15.49,0,0,1-5.5-4.06,13.43,13.43,0,0,1-3-6.68,12.2,12.2,0,0,1,.5-6.37,12.62,12.62,0,0,1,3.32-5,14.28,14.28,0,0,1,11.67-3.53,12.2,12.2,0,0,1,2.89.82,4,4,0,0,1,2.15,2.1,2.93,2.93,0,0,1,.27,1.25,3.22,3.22,0,0,1-.24,1.24,2.68,2.68,0,0,1-.72,1,2.58,2.58,0,0,1-1.17.58,2.14,2.14,0,0,1-1.48-.26l-1.28-.8a15.11,15.11,0,0,0-1.8-.9,8.55,8.55,0,0,0-1.91-.53,6.77,6.77,0,0,0-2.89.08,8.56,8.56,0,0,0-2.68,1.3,7.76,7.76,0,0,0-1.91,2,6.91,6.91,0,0,0-1.06,3.29,10.86,10.86,0,0,0,.42,4.09,10.5,10.5,0,0,0,1.73,3.32,10.91,10.91,0,0,0,2.78,2.49,13.2,13.2,0,0,0,3.56,1.56,17.49,17.49,0,0,0,4.88.69,18.7,18.7,0,0,0,4.85-.63,16.68,16.68,0,0,0,4.46-1.94,14,14,0,0,0,3.64-3.26,12,12,0,0,0,2.28-5.44,8.83,8.83,0,0,0-1.12-5.7,7.86,7.86,0,0,0-1.78-2.23,22.35,22.35,0,0,0-2.3-1.78c-.82-.55-1.66-1.07-2.52-1.57a17.4,17.4,0,0,1-2.42-1.64,22.64,22.64,0,0,1-2.36-2.26,5.14,5.14,0,0,1-1.35-2.89,4.39,4.39,0,0,1,.13-1.72,5.77,5.77,0,0,1,.72-1.62,6.69,6.69,0,0,1,1.14-1.35,8.06,8.06,0,0,1,1.4-1,6.22,6.22,0,0,1,3.93-.79,10.88,10.88,0,0,1,3.93,1.32,18.17,18.17,0,0,1,3.55,2.6,26.14,26.14,0,0,1,2.76,3,1.48,1.48,0,0,1,.29,1.52,1.82,1.82,0,0,1-1.19,1.08,2,2,0,0,1-1.78-.16,7.07,7.07,0,0,1-1.4-1.22c-.39-.42-.92-.93-1.6-1.53a13.14,13.14,0,0,0-2.2-1.62,7.4,7.4,0,0,0-2.39-1,2.61,2.61,0,0,0-2.14.45,1.9,1.9,0,0,0-.51.48,1.83,1.83,0,0,0-.32.74,2.62,2.62,0,0,0,0,1,3.37,3.37,0,0,0,1.43,2c.43.29.89.57,1.38.85s1,.56,1.51.82S275.81,117.07,276.2,117.31Z"/><polygon class="b" points="164.03 31.05 160.73 27.29 76.57 101.13 76.57 30.98 71.57 30.98 71.57 105.52 28.3 143.47 31.6 147.23 50.43 130.71 50.43 264.45 55.43 264.45 55.43 126.33 164.03 31.05"/><path class="b" d="M73.13,91.37c0,.26,0,.51-.06.77h3.5c0-.32,0-.65,0-1V14.75c0-1.06,0-1.05-1-1.43a34,34,0,0,0-9.75-2.09,3.43,3.43,0,0,1-.44-.09h-4.4c-1.56.19-3.13.33-4.68.57-2.76.44-5.51,1-8.28,1.4-4.23.69-8.45,1.49-12.7,2a30.06,30.06,0,0,1-15.37-2.31c-.28-.12-.56-.21-.94-.34,0,.25-.05.45-.05.65q0,23.28,0,46.58a.77.77,0,0,0,.55.86,34.48,34.48,0,0,0,8.37,2.1,38,38,0,0,0,10.44-.19c4.24-.67,8.46-1.43,12.68-2.17a75.07,75.07,0,0,1,11.66-1.45,30.24,30.24,0,0,1,10.13,1.44c.18.06.31.33.41.53s0,.29,0,.44Z"/><path class="a" d="M56.15,30.35l-.94-.52a.75.75,0,0,0,.12-.52.74.74,0,0,0-.28-.43.81.81,0,0,0-.67-.19,1.36,1.36,0,0,0-.76.57,1.59,1.59,0,0,0-.46.93.79.79,0,0,0,.32.64A.7.7,0,0,0,54,31a1,1,0,0,0,.59-.29l.7.8a1.8,1.8,0,0,1-1.17.45,1.94,1.94,0,0,1-1.2-.49,1.87,1.87,0,0,1-.74-1.33,2.13,2.13,0,0,1,.57-1.53,2.16,2.16,0,0,1,1.39-.87,1.86,1.86,0,0,1,1.46.47,2,2,0,0,1,.71,1A1.76,1.76,0,0,1,56.15,30.35Z"/><path class="a" d="M59.33,29.92l.56.9L58.14,31.9a1.56,1.56,0,0,1,1.16.73,1.6,1.6,0,0,1,.23.64,1.12,1.12,0,0,1-.06.56,1.25,1.25,0,0,1-.3.42,3.68,3.68,0,0,1-.65.47L56.5,36l-.56-.91,1.82-1.12a3.05,3.05,0,0,0,.65-.47.47.47,0,0,0,.12-.32.67.67,0,0,0-.11-.39.94.94,0,0,0-.36-.33.68.68,0,0,0-.49-.06,2.3,2.3,0,0,0-.71.32l-1.72,1.06-.56-.91Z"/><path class="a" d="M61.33,36.39l-.31-1,.95-.28.31,1ZM56.94,37.7l-.31-1,3.87-1.16.31,1Z"/><path class="a" d="M58.47,39.41l-1.23.12-.11-1.07,4-.38.09,1-.57.06a1.63,1.63,0,0,1,.58.4.8.8,0,0,1,.17.45,1.42,1.42,0,0,1-.13.72l-1-.25a1,1,0,0,0,.13-.51.66.66,0,0,0-.16-.37.9.9,0,0,0-.47-.2A6,6,0,0,0,58.47,39.41Z"/><path class="a" d="M60.07,42.84a.93.93,0,0,1-.28,1.37,1.26,1.26,0,0,1-.94.1,1.39,1.39,0,0,1-.86-.45.93.93,0,0,1-.18-.75.92.92,0,0,1,.45-.63,1.63,1.63,0,0,1,1.81.36Zm-1.79-1.5a1.72,1.72,0,0,0-.87.61,2.34,2.34,0,0,0-.45,1,2,2,0,0,0,.3,1.58,2.11,2.11,0,0,0,1.38.87,2,2,0,0,0,1.58-.28,2,2,0,0,0,.88-1.36,2.15,2.15,0,0,0-.05-1.1,1.83,1.83,0,0,0-.6-.88,2.12,2.12,0,0,0-1-.45A2.34,2.34,0,0,0,58.28,41.34Z"/><path class="a" d="M56.33,47.83A13.18,13.18,0,1,1,44.49,27.35v2.43h1.59V27.33a13.17,13.17,0,0,1,4,.86l.61-1.47a14.79,14.79,0,0,0-4.58-1l-.06-2.13H47.3s2-.12,2-2.75-2.13-2.74-2.13-2.74H44.49l-.05,7.63a14.76,14.76,0,1,0,13.18,23Zm-10.25-28h.79s.67.06.67,1.09S47,22,47,22h-.91Z"/></svg>