<svg xmlns="http://www.w3.org/2000/svg" viewBox="0 0 375.63 253.31"><defs><style>.a{fill:#1d1d1b;}.b{fill:#dc0b2d;}.c{fill:#fff;}</style></defs><title>Colors</title><path class="a" d="M95.76,143.89h12.42l.4.4V149l-.4.45h-.41c0-.35-.35-.77-1.06-1.26v-.4h-.2l-.2.2h-.2l1.25,1.87-1,.81h.2l1.87-1,.2.21v25.85h-1l-1.06-.65c0,.57-.27.85-.81.85,0,.82-.14,1.22-.41,1.22h-1.05l-.61-.4-.41.65.21.2h1.21v.4a2,2,0,0,1,1.67,1l.4-.61c-.4,0-.6-.13-.6-.41v-1.25h1.25l.41.4v1.06c-.43,0-.65.13-.65.4a1.74,1.74,0,0,1,1.46,1.06v2.48l-1.46,1.62h1.06V183h.4v9.09c-.27.57-.61.85-1,.85l.4.41.61-.21v5.77h-.4c0-.68-.14-1-.41-1l-1.26-.61v.21c0,.21.42.42,1.26.61l.2,1v.2l-.61.61h-.44l-1.22-1.05v.24l1,1.22-.2.61h.2q1.26,0,1.26-.81h.61v1.66l-.4.41h-1.26l-.61-.41-.41.41h-1.46c-.27,0-.4-.21-.4-.61h-1.26c0,.4-.14.61-.41.61h-1l-1.26-1h-.2v1H97.42v-.61H96.16v.2h.45v.41h-.85l-.41-.41v-.2l.41-.65v-1h-.41v-1.86l.81-1.22c0-.43-.2-.65-.61-.65l-.2-.2v-1.47l.41-.4h.85l.61.4h.61l-.21-.2-1-.4-.45-1.22h-.4v1h-.41v-7.87l.41-.41H96l1.26.41v.24l1-.24H99.9c0-.27-.28-.41-.82-.41v-.4H97.62l-.4-.41.2-.85c-.54,0-.81-.76-.81-2.27l-.25.24h-.6l-.41-.45v-1.62H96l-.2-.24v-.21l.2-.61-.61-1V144.29Zm-.21,38.48a1.08,1.08,0,0,1,1.06,1.22c-.57.29-.85.64-.85,1h-.41v-1.87l.2-.2Zm0,0a1.08,1.08,0,0,1,1.06,1.22c-.57.29-.85.64-.85,1h-.41v-1.87l.2-.2Zm.21-6.42,1,.82h.61C97.42,176.42,96.86,176.14,95.76,176Zm1.66,11c0,.55-.14.82-.41.82l-.65-.21-.2.21v.65c.43,0,.65.2.65.6H97a.92.92,0,0,1,1-1h.65A2.15,2.15,0,0,0,97.42,186.91Zm-1.06-35.35V152l.45.4.2-.2V152l-.4-.41Zm0,27.89v.24a1.64,1.64,0,0,1,1.26.81h.21l.6-.61-.6-1h-.21A2,2,0,0,1,96.36,179.45Zm.65-5.36v1h.41v-1Zm2.89,4.75-.21,1.25.61.61v.41l-1,.2h-.61l-.45,1.06v.2l.45.41h.2l1-.21.2,1h.2v-1.22c.27,0,.41-.27.41-.81l.24-.24h.2l.82.24v-.24c0-.27-.42-.55-1.26-.82l-.21-1v-.24H101v-.21c-.43,0-.65-.13-.65-.4Zm-1.67,14.08h.65l.41-.44h-.61Zm0,7.43.45.61.61-.2-.21-.82Zm.65-3.29v.41h.2l.41-.41Zm.61-52.56-.41.65h.21l.61-.25Zm-.41,44.69h.41l.41-.41h-.41Zm.41-14.09v.45l.41.4v-.85Zm.81,16.56v.41c-.4,0-.61.14-.61.41h.61l.2-.61v-.21Zm-.2,7.47.4.41h.65v-.41Zm.2-12.22v.21c.57,0,.85.27.85.81h.41a2,2,0,0,1,1-1.62C101.06,186.44,100.3,186.64,100.3,186.91Zm.2,10v.2H101c0-.3.2-.44.61-.44v-.41Zm.21-20.5v.81h.65V177l-.21-.61Zm.24,8.69h.61l.2-.21H102l-.21-.61Zm.61-5.81v.21l2.07,1.46v-.82a2.18,2.18,0,0,1-1.06-1.86c-.21,0-.42.34-.6,1Zm.2-32.88v.41l.21.2h.4v-.2l-.4-.41Zm0,3.33v.21l2.48,1,.2.2h.2l-.2-1v-.41l.41-.65h-1.63Zm1,46.52v.2l.44.65v.41c0,.4-.28.61-.85.61v.2h1.06l.2-1C103.36,196.62,103.07,196.26,102.78,196.21Zm.24-11.16v.2c0,.22.47.57,1.42,1.06v-.45a.54.54,0,0,1-.61-.61l-.2-.2Zm.2-10,.41.45q1.83-.62,2.07-1.26l-.2-.2A3.18,3.18,0,0,1,103.22,175.1Zm1.42,7.67-.6-.2v.81h.6c0-.54.49-.94,1.47-1.21v-.41h-.21Zm-.4,4.14v.21h.85l-.24-.21v-.2Zm.4,2.89v.2h.21c.05-.54.61-.81,1.66-.81v-.81C105.27,188.78,104.64,189.25,104.64,189.8Zm0,10.55v.41h.65v-.41Zm.21-49.24.44.45h.41v-.45Zm.65,33.12v.41c.54-.22.81-.42.81-.61Zm1.42-16.35v1.86h.44l.21-.6-.45-1.26Zm0,12.21v.41h1.26v-.61Zm.44,9.5-.24.86h.65l.2-.86Zm.41-16.76-.41,1v.21l.82-.21-.21-1Zm.81,3.33v2.07h-.4v-.41l-.21-1.46.21-.2Zm0,0v2.07h-.4v-.41l-.21-1.46.21-.2ZM111.06,144h12q14,0,17.74,9.9a11.47,11.47,0,0,1,.85,4.55l-.61.2v.21a.53.53,0,0,1,.61.6c-.21,2.49-.57,3.74-1.05,3.74l-.21-1.26h-1l-.2.2h-.21l-.44-.4v-.41l.24-.2v-.2l-.85-.82-.2.21h-.41l-.2-.86h-.41l.2.21-.2.24v.41l.2.2v.2l-.2.21a3.94,3.94,0,0,1,1.62,2.27v.41l-.2,1.46-1-.21h-.21l.82,1h-1.43l.21,2.07-.65.2v.61l.44.61-1.86,1.05a.93.93,0,0,1-1.06-1.05h-1.62V170a7.19,7.19,0,0,1,3.29,1.62c0,.3.33.45,1,.45,1,.49,1.46,1.09,1.46,1.83,1.65,0,3.24,1.93,4.75,5.8l-.2.2c.51,0,.85,1,1,3.09-.4,0-.61.13-.61.4a1.44,1.44,0,0,1,.82,1.46H143l.21.21q-.33,4.95-1.42,4.95l.4.81-.4.85-1.47-.2h-.2l-.61.41c-.7-.19-1.05-.41-1.05-.65v-.21l.24-.2v-.2h-.24l-1,.4v.45c0,.35.49.62,1.46.81v.61l-.65.61h-1l-.41.45v.4c.46,0,1.29.54,2.48,1.63q-3.28,3.74-5.36,3.73c0,.22-1,.7-3.12,1.46-.3,0-.71-.42-1.22-1.26l-.61.21v-.21l-.24-.61.24-.6H128l-.6-.45v.2a5.84,5.84,0,0,1,1.42,3.33l-3.5.2h-.2c-.27,0-.4-.42-.4-1.25-.41,0-.61-.34-.61-1h-.25V201c-.81.11-1.21.26-1.21.44l.2.61-.2.21H111.06l-.41-.41V191.7l.41-.44h8.28l.81.65h.2l-.2-.21v-.2l1.22-.45H122c0,.44.13.65.4.65h.41c0-.56.49-.85,1.46-.85l3.09-1.22.2,1.42v.65h.4c0,.36.49.76,1.47,1.22h1.21v-.81c-.4,0-.61-.14-.61-.41v-.65l.21-1h.4c.27,0,.41.27.41.81h.24l.21-1-2.28-1.26-.44-.41v-.61a4.21,4.21,0,0,1,.85-2.07V183l.2-.21-1.26-3.08.86.41.2-.21v-.61h-1.46l-.81-.85.2-.2v-.2h-.2l-.61.2q-.94-1.43-7-1.42h-8.68l-.41-.45v-9.7l.41-.41h10.31v.61h.44c0-.67,1-1,3.09-1a5.77,5.77,0,0,0,3.69-5.77l.21-1.46h-.41V157H128l.21.2v.25l-.21.2h-.2q-1.86-2.68-6-2.68H111.06l-.41-.45v-10.1Zm.61,3.29v.2l.44.45.61-.21v-.24l-.81-.2Zm4.54,46c0,.3-.4.78-1.21,1.46.27,0,.81.49,1.62,1.46.08-.57.3-.85.65-.85l-.2-.21.2-1V194a.58.58,0,0,1-.65-.65Zm-1-49.12v1.06l1-.25Zm1.22,53.26v.61l.44-.41-.24-.2Zm1.66,3.29-.2.85h1.66v-.41l-.45-.44Zm.2-8.24v.2c.08.4.64.61,1.67.61h.2q-.21-.81-1.26-.81Zm.61-17.34h1.26l-.41-.4h-.4Zm.45,23.75v.81h.2l.2-.2H120l.2.2v-.2C120.15,199.32,119.88,199.12,119.34,198.93Zm.2,1.22v.2l.2.61h.41l.2-.81Zm.81-7.23,1,.41.24-.21h.2l-.44-1Q120.44,192.52,120.35,192.92Zm0,2.88V196l.21.24v.2l-.21.21h.21l.2-.21,1,.21h.41v-.86l-1-.2Zm1.46-49.52v.81h.41v-.4Zm.61,1.67-.2.2v.2l.81.81a3,3,0,0,1,1.67-.4c0-.27-.21-.41-.61-.41l-1.06.21Zm.21-2.07v.4l.81-.2v-.2Zm.4,20.82-.2.2v.45q1.26.24,1.26.81h.2v-.4c-.3,0-.45-.29-.45-.86Zm0-13,.41.41h.4l-.2-.61Zm.21,40.27-.21.81c.71,0,1.06.27,1.06.81h.2V195l-.2-1Zm.4-24.15-.4.81h.85l.4-.41V170Zm.45,3.28v.41a1.42,1.42,0,0,1,1,.61h.2c-.08-.35-.42-.69-1-1Zm.61,25.62v.81h.81v-.81Zm2.07-51.64c0,.28-.22.41-.65.41V148h.65c0-.3.2-.45.61-.45l-.41-.41Zm0,18.19v.41l.4.4h.21l-.21-.81Zm1.42,23.1h.2c0,.43.49,1.05,1.46,1.86-.13.54-.62.81-1.46.81a3.34,3.34,0,0,1-1-2Zm-.61-36.94v.4l1-.2h.65v-.41h-.65Zm.61,1.87v.2l.61,1.87H129c0-.57.41-.92,1.22-1.06l-.21-.61h-1l-.65-.4Zm.2,18.79c.27.62.55,1,.85,1h.21l-.65-1.46Zm0,4.75v.4H129l.41-.4Zm.41-8.49V169h.44l.41-.4Zm.24-7.22v.4l.81-.4v-.2h-.2Zm.2-5.36c.19.54.39.81.61.81l.2-.2v-.61h-.4l-.2-.2Zm.21,21.47v.41h.6v-.41Zm.2-28.09.4.82h.21v-.82Zm.4,7.64-.2,1.66.2.2h.82l.44-1.66h-.24Zm0,9.29v.41l.41.4h1.66v-.4h1l.65.4h.4c0-.46-1-.86-2.88-1.21h-.44Zm.41,5.36h.2l.41-.41h-.2Zm.85-18.75v1h.61v-.2C131.7,153,131.5,152.7,131.31,152.7Zm.21,8.44.2.81h.2c.19,0,.39-.27.61-.81Zm2,15.26q1,0,1,1.26h.61c0-.7.13-1.06.41-1.06l.2.25,1.66-.45h.21c.27,0,.4.22.4.65a1.57,1.57,0,0,0,1.26.41v.4a4.15,4.15,0,0,0-1.46,2.48l.61.61v.2a1.42,1.42,0,0,0-1,.65h-.81v1.62l-1.46.41-.41-.41-.4,1.26.2.81-.61.61.61,1.06v.4c0,.27-.55.48-1.66.61l-.21-.2-.2.2v.21c.35,0,.56.28.61.85l-.41.4q1.26,0,1.26,1c0,.32.61.68,1.83,1,.05-.7.2-1,.44-1l-.24-.2v-.21l.24-.2v-.2l1,.2h.2l-1.66-1-.2.21h-.21l-.2-.21v-.24l.41-1,2.88-.21v-.2l-.41-.61-1,.2-1.06-.4v-.85l.24-.21-.24-.2v-.81l.65-.65h1.42l-.2,1,.2.21h.41l.24-1-.24-1.46.24.2h.2l.41-.4v-.2l-.2-.21v-.2c.81-.35,1.21-.64,1.21-.85l-.6-1q.48-1.26.81-1.26l.2.21v-.21l-.81-1.21.4-.61v-.45l-.2.2H140l-.2-.2-.21.2h-.2c-.27,0-.41-.2-.41-.6h-3.12c-.27,0-.48-.63-.61-1.87l1.26-.41.2.21h.61v-.21a2.94,2.94,0,0,1-1.66-.61c-1.09.76-1.63,1.38-1.63,1.87Zm-.21-20,.45.61-.65,1.87h.2l2.48-.61A2.79,2.79,0,0,0,133.34,156.39Zm.45,24.15-.45.81.21.21-.21.24h1.26l-.41-.65.82-.2v-.41Zm.2-26.42v.2c.38,0,.79.49,1.22,1.46l.2.2h.21l.2-.2v-.2a2,2,0,0,0-1.63-1.46Zm0,7.83.2.2v.25l-.2.2v.2h.41l.4-1.26Zm.2,32v.2l.41.41h.2v-.41l-.2-.2Zm2.28-1.87-.45.81v.2c.7-.16,1.06-.36,1.06-.6l-.41-.41Zm0-33.85.2,1h.2v-1Zm.2-1.87v.2l.41.41v-.2Zm1.22,21.27v.61l.61-.2v-.21Zm1.05-12.58.82.61-1.47,1.66h-.2v-.65A2.75,2.75,0,0,0,138.94,165.08Zm0-2.07v.61h-.44v-.21Zm-.2-4.14v.6h.41v-1Zm.2-4.35V155h1v-.45Zm0,32.64v.2l.61,1.42-.2,1.06h.41c0-.27.27-.41.81-.41V189c-.41,0-.61-.35-.61-1.05l.4-.61v-.2Zm.41-23.75h.2l1,.21a1.44,1.44,0,0,1-.81,1.46h-.41v-.21l.2-.2-.2-.24Zm.41,29.31h.2l1,.4v.41l-.85.85h-.4l-.41-.4v-.86ZM141,182.21l.41.4.41-.4Zm.61,3.89v.21l.41.44v-.65Zm0,2.28.21.2h.6V188H142Z"/><path class="a" d="M172.23,144l.2.2v9l-1.18.82v.2l.61.2c0-.4.12-.61.37-.61h.2v.41l-5.11,1.78L164,158.62l-1.59-.4c.27.59.55.92.82,1q0-.57.36-.57V159a20.49,20.49,0,0,0-4.3,10.27l-.2-.21h-.61c0,.28.2.41.61.41l.2.2v.41c0,1.57-.2,2.35-.61,2.35h-.2l.2.21v.4l-.41.37-.56-.21-.21.21v.2l.21.2h.2l.57-.2q.72.74,1.38,6.13l-.57.57H159v.2h.36v-.2c.68,0,1,.59,1,1.78l-.21.21q.45.12,3.17,5,0,.45,4.14,3.12l3.33.82v.56l-.21.21v.2l-.16-.2h-.4v.61h-.41v-.21l.2-.2V192l-1.17-.21a2.24,2.24,0,0,1-2.19,1.79v.41c.4,0,.6.25.6.77v.2l.77-.2-.16-.21v-.16c.65,0,1-.13,1-.4v-.41l-.21-.57h.21l.77-.2h.4l1.38.36V193c.55.19.82.38.82.57l-.21.2v.21h.21l-.21.2v.57l.21.2v.2l-.21.21h-.2l-.41-.41c0,.27-.2.41-.61.41l-.16,1h.16l.82-.2c0,.27.25.4.77.4v.41l-.37,1h-.2l-.81-.4-.77.61v.4h.4v.77l-.4.41-.82.2v-.61h.41v-.4l-.57-.16a4.31,4.31,0,0,0,1.18-2.2q-.45,0-1.38,1.59l.2.2h-.2l-.61-.41h-.2l-.37.41c0,.38.26.57.77.57l-.2.61.2,1-.2-.2h-.2v.2q.6,0,.81,1.38h-.41v.2l-3.53-.77.16-1-1.17-.37-.41.37c0-.52-.19-.77-.57-.77h-.2a.68.68,0,0,1-.77.77q-3.57-1.09-8.48-6.09l.16-.81-.16-.21h-.21l-.4.41-3-4.14.21-.61h-.21c-.48,0-1.34-1.77-2.55-5.32,0-1.19.46-1.78,1.38-1.78l-.21-1c.27,0,.41.21.41.61l.2-.2h.17l.2.2v-.61h.61l.4.41-.61.57.21.2v.41l-.21-.21h-.2l-.2,1.38,1,.21v-.21a2.23,2.23,0,0,1,1.95,1.18l-.2.2.2.21h.41l-.41-1.18h.2l.61.2v-.2l.57.41.2-.21h.41v.41l.41-.41v-.2l-.21-.2v-.21l.21-.2-.21-.2h-.2c0,.54-.2.81-.61.81h-.2c-.6-.65-1.06-1-1.38-1l-.37.36h-.81c-.27,0-.53-.38-.77-1a1.82,1.82,0,0,1,1-1.59l.21.21v-.21l.77.41.2-.2v-.21l-.2-.2.4-.77-.2-.2.2-.21h-.4l-.16.21h-.21l-.61-.21v.21l-.4.4v-.2l-1.18.41H148v.36h-1c-.51,0-.77-1-.77-3l1,.61h.61v-.41l-.2-1,.57-.61H148l-.77.61-.4-.82.2-.16-.77-.4q.12,1.17.36,1.17l-.16.61c-.4,0-.61-1.44-.61-4.34,0-3.17.21-4.75.61-4.75l-.2-.2v-.21q.53-6,5.11-13.39Q159.93,144,172.23,144Zm-25.45,37.3h.2l.81.21v.16l-.61.61H147Zm1.58,2.36-.2.2v.2l2,1.18v-.41a1.46,1.46,0,0,0-.61-1.17l-.2.2h-.17Zm.2-13v.4l.61.21V171Zm.41,5.15v.37h.77l-.4-.37Zm.2-2.6v.61l.57-.2v-.41l-.2.21h-.2Zm3.74-2.15v.21l.2.56a3.51,3.51,0,0,1-1.79.61c0-.32-.25-.52-.77-.61l-.2.21v.2c1.05,0,1.58.66,1.58,2h-.2c-.27,0-.41.19-.41.57-1,.46-1.58.8-1.58,1h.2c1.19-.27,1.79-.67,1.79-1.22l1.18-.16v.16l.2-.16h.41l-.21.16v.21l.21.2.16-.2h.2l.41.4-.21.21h1v-.21l-.16-.61h.36V175h.61l-.2-.2v-.37h.2l.77.57.61-.2-.2-.21v-.16l.2-1h-1.18V173h-.2v.37c-.92-.19-1.38-.52-1.38-1v-.2l-.2.2h-.21a2.35,2.35,0,0,1-1-1.38Zm-3-8.28v.41h.61v-.41Zm0,6.29v.41l.41.41.2-.21v-.61Zm.82,8.12v.21l.56-.61h-.2Zm.77-1.38-.21.77c.27,0,.41-.2.41-.61v-.16Zm0,15v.61h.2l.57-.2-.37-.41Zm.2-20.9v.4h.57v-.2Zm1.18,11.81-.21.61.21.61h.2l.2-.61.57.2v-.61Zm-.21,9.5v.56l.21.21h.2v-.21l-.2-.56Zm1-11.65-.57-.21h-.2v.21l1.38.77h.2l-.2-1,.4-.4h-.2Zm.2,7.71.81.16.37-.57h-.77Zm2.56-6.74c0,.41-.12.61-.37.61l-.81-.2v.2l-.2-.2h-.16l-.82,1.17.21.82h.2a1.31,1.31,0,0,1,1-1.22h.61v.2h-.4l.61,1h1l.2-.21h.21l.77.77h.2c-.81-1.29-1.41-1.94-1.79-1.94v-1Zm-2.36,12.26.41.36.2-.16v.16l.57-.16-.2-.61h-.57Zm.61-3.17.21.77h.36l.41-.36v-.41l-.21.21-.2-.21Zm.37-22.48v.36h.61v-.36Zm.4-13v.56c.57-.29.9-.62,1-1h-.16Zm.61,40.06h.21l.36-.41v-.2Zm.21-15.38.16.56.81-.77h-.41Zm.56,14.36.41.41h.41l.2-.77h-.2Zm.41,3.17v.2a1.41,1.41,0,0,0,1.38,1h1v-.21l-1-.16-.61.16.2-.16v-.4Zm.2-17.94.21.2v.21l1-.21v-.4h-.2Zm.57,15.18v.61h.41v-.61Zm1-26.83c0,.27-.21.41-.61.41v.36h.2l.77-.77Zm-.41,27.64.2.16-.2.21v.2l.41.41.56-.21v.41h.21c0-.27.27-.41.81-.41l.36-.4v-.37l-.56.37-1.18-.37Zm.2-3.57v.81H159l.2-.81Zm1.18,7.31-.2.61h.2l.77-.41v-.2h-.36l-.21-.21Zm0-13.44v.2h.61v-.36Zm1,11.85-.36.61H161l.21-.61Zm-.2-8.28.2.21v.2l-.2.57.2.2h.41C161.39,188.71,161.19,188.32,160.78,188.21Zm1.58,1-1,1,1.79-.57v-.2ZM161.8,186v.41l.36.4.41-.4L162,186Zm0,5.36v.77a1.4,1.4,0,0,0,1,1.38h.41v-.77Zm2.35,6.29v.2l.2.21H165v-.21Zm1.18,1-.21.16v.2h.41l-.2.2v.21h.81v-.61Zm1-1,.37,1h.81v-.41c-.27,0-.41-.2-.41-.61Zm1.38-6.9.16.2v.21h-.36v.4l.57-.4.2.2v-.2l-.41-.41Zm3.33,9.66c.79,0,1.18.34,1.18,1l.2.56h-.2l-1.59.21V202l-.56-.77-.21.21h-.2V201Zm1.18-2h.2v1.59l-.2.16v.2l-.57-.2C171.82,199.06,172,198.48,172.23,198.48ZM175,144q9.09,0,17.57,6.9,5.28,5.57,6.13,9.3l-.4.56v.41l.4.41v-1.22c.35,0,.75,1.12,1.18,3.37h-.41v-.57c-.27,0-.4.39-.4,1.18-.25,0-.37.32-.37,1l-.2.2h-2.76l-1.38-1.17h-.2l.2.2v1l-1,.41h-1v-.41H192v.57l.6.81h-.2l-.2-.2H192v1l-2.56-.77v.41c0,.38.8.57,2.39.57,0,.21.39.48,1.18.81l.57-.2.2.2v-.2l.2.2h.21l.77-.2.81.2.41-.61c-.41,0-.61-.32-.61-1l-.77.2-.61-.2v-.41a1.28,1.28,0,0,1,1-1.38l.41,1-.21.21v.4h.21q0-.53,1.38-.81l.2.2v.61c-.35,0-.56.33-.61,1h.41v-.41c.4,0,.61-.26.61-.77l.16-.2v-.21h-.37v-.2h.37l.2.2h.2l2-1,.41.61-.2.57c.37,0,.56.73.56,2.19l-.56,1-.21-.2h-.4c0,.35-.33.56-1,.61l-.2.2v.37l1.38-.57-.2.2v.37h1l.41.4-.21.21v.2l.41.36-.2.21.2,1-.2,1.18c-.27,0-.41-.27-.41-.81h-.77v.81l-.2,1-.77-.2-.61.2.2.61.77-.4v.4h.61l.2-.2h.21v.2l-.21.57h1q0,7.88-6.7,17-8.73,8.88-19.52,8.89v-.41c.37,0,.56-.12.56-.36h-.77v-2.76H175v-1.22h.61l.61.4h.16l.81-.4L176,195.88v-.77c0-1.4.53-2.19,1.59-2.35l-.21-.2.21-.21v-.77l-1,.16v-.56l1.79-.41v.2l-.21.21v.2h.41c0-.54,1.06-1.34,3.17-2.4,1.57-1.29,2.35-2.15,2.35-2.55h1.38v-.21l-.2-.2v-.16l-.21.16h-.36v-.16q0-.33,1.74-1.38v-.61l-.16-1,.16-.21h.41l.2.21.21-.21h.2a.5.5,0,0,1,.57.57h.2v-.77h-1c-.27,0-.41-.2-.41-.61l.2-1.38h.21l.56.41H188l-.21-.21c.09-.65.29-1,.61-1v-.41c-.51,0-.77-.13-.77-.4v-1.18l.16-.2v-.16l.21.16h.4c0-.25.21-.37.61-.37l.16-1h-.36v.4l-.41.41h-.61v-.2c.09-1.46.22-2.2.41-2.2h.41v-.16l-.61-1v-1h.4v-.2l.21.2h.2c.38,0,.57-.2.57-.61h.2v.41h2l.77-.2,2.4.61a2.27,2.27,0,0,1,1.54-1l.4.37h.21v-.21c-.41,0-.61-.12-.61-.36h.2l-.57-.81c-.13.35-.86.69-2.19,1l-.36-.4H193l-.2.2h-.21l-.2-.2V171l.41-1.17-1.18.4H191l-.2-.2-.2.2h-.17c-.19-.27-1-.4-2.39-.4l-.57-2.56q.36,0,.36-.81l1-.21-2.19-1.94.2-.21v-.2L184.49,160a15.12,15.12,0,0,0-7.51-4.95c-1.57-.19-2.36-.45-2.36-.77v-9.86Zm0,49h.4l-.2,1H175l-.37-.41v-.2Zm-.37,2.36H175v1.58l-.37.36Zm3,3.93-.21.21v.4l.57.21v-.41Zm0-4.54v.2l.56.2v-.4Zm4.5,2.39v.16h.41l.2-.56h-.2Zm4-9.29.2.61h.16l.41-.41v-.41l-.41-.36Q186.07,187.24,186.07,187.81Zm1.18-1.59.2.61h.2l.37-.4V186l-.37-.36C187.38,185.66,187.25,185.85,187.25,186.22Zm.77-15.79,1.38.41-.21.2v.41l.21.2v.16l-.21.21a1.22,1.22,0,0,1-1.38-1.38Zm.4,16.61v.2l.21.16h.56v-.16Zm.21-7.72v.21l.2.61h.57l-.37-.82Zm0,4.35.4.4h.16l-.36-.4Zm.2-33.17v.21c.24,0,.36.2.36.61h.41v-.82Zm.77,23.71c0,.38-.14.57-.41.57l-.16-.21h-.2v.21c0,.32.72.59,2.15.81,0,.38.14.57.41.57l.2-.21v-.16c-.41,0-.61-.27-.61-.81l-.2.2h-.2c-.36,0-.55-.32-.57-1Zm.2,6.7-.2.77h.61l.77-.37-.2-.2v-.2l-.2.2h-.37l-.2-.2ZM191,186l.2.2-.2.21h.61l-.2-.77Zm1.38-9.66-.2-.2H192l-.17.2v.41l.17-.21h.6l.61.41v-1H193Zm-.4.61v.2l.2.57-.2.2h.6v-.2l-.4-.77Zm.81-8.12v.61h.2l.2-.61Zm.77-1.38v.2l-.37.41v-.2Zm.4,10.07.21.61h.61v-.41Zm2.76-15.95c0,.37-.32.56-1,.56v.21h.77l1.18-.41v-.36h-.37l-.2.16h-.2ZM195.93,176v.21h1l-.41-.37Zm.37-5.52.2.21v.2l.2-.2h.82q.36,0,.36.81l.2.2h.21l.2-.2-.2-1.18h-1Zm2.6,1.38-.21,1,.57.2.61-.2.2.2v.16l.57-.16v-.81h-.16c0,.41-.14.61-.41.61q-.81,0-.81-1Zm.56,5.73-.2.61h.61v-.61Z"/><path class="a" d="M211.64,143.64v.45c-.27,0-.4.27-.4.81l-.25.25h-.2l-.81-.25v.25q0,.4,1.26.81l.2,1v.25H211v.2c.43,0,.65.14.65.41h.41l.2-1.26-.61-.61v-.41l1-.2h.6l.45-1.06v-.2l-.45-.4h-.2l-1,.2,0-.25h3.2a6.81,6.81,0,0,1,.13,1.51l.24-.25h.61l.4.45V147H216l.21.25v.2L216,148l.61,1v33.37a6.56,6.56,0,0,0,3.58,6v.2l-.21.2h-.24l-.2-.2v.4h1.66v.41l2.23-.2h.49v8.28h-.08l-.2-.21h-1.18l-.24.21-.21-.21v.41l1.63.2v.41l-.21.2.49.53v3.09c-.35.05-1,.09-1.91.12a.54.54,0,0,1-.61-.61h-.2l-.2.61a18,18,0,0,1-5.32-.86q-9.9-3.69-12.3-17.61V150.91h1l1.05.65c0-.57.27-.85.81-.85,0-.81.14-1.22.41-1.22h1l.61.41.41-.65-.2-.21H207.3v-.4a2,2,0,0,1-1.67-1l-.4.61c.4,0,.61.14.61.41v1.26h-1.26l-.41-.41v-1.06c.44,0,.65-.13.65-.4a1.73,1.73,0,0,1-1.46-1.06V144.5l.77-.86h3.09a2.19,2.19,0,0,1-1.38.86v.4h.2l1.26-1,.61.2v-.45Zm-8.28,6.86v-2.07h.41v.41l.2,1.46-.2.2Zm1.67-3.93v-.41h-1.26v.61Zm-.86,7.26.41-1.05v-.21l-.81.21.2,1.05Zm0,22.81.12.17,0-.25Zm.9-17.86v-1.86h-.45l-.2.61.44,1.25Zm3.69-7.22-.41-.45c-1.22.41-1.9.83-2.07,1.26l.21.2A3.14,3.14,0,0,1,208.72,151.56ZM207.62,184h.21l.2-.81h-.41Zm2.76-36.61v-.2l-2.07-1.47v.82a2.17,2.17,0,0,1,1.06,1.86c.22,0,.42-.33.61-1Zm-2,35.35,0,0h.41v0Zm.45,4.59v.2l.41.41C209.25,187.56,209.11,187.36,208.84,187.36Zm.85,0v-.65h-.44C209.25,187.14,209.39,187.36,209.69,187.36Zm.61-3.73-.2,1.05c0,.41.13.61.41.61a3,3,0,0,1,.4-1.66l-.81-.82h-.2l-.21.21Zm.94-33.33v-.81h-.65v.2l.2.61Zm-.33,40.55h.81v-.2l-.81-.41Zm1.54-39.29v-.45l-.4-.4v.85Zm.53,37.63v.65h.41v-.65l.2-1h-.41Zm2.6-42V147a1.67,1.67,0,0,1-1.26-.81h-.2l-.61.61.61,1.06h.2A2,2,0,0,1,215.58,147.22Zm-.33,45.3h.21v-.61h-1C214.44,192.1,214.71,192.3,215.25,192.52Zm.94-41.81-1.06-.81h-.61C214.52,150.25,215.08,150.52,216.19,150.71Zm-1.26,1.86v-1h-.41v1Zm.12,36.41.41.65v1l.61.2c.13-.81.74-1.22,1.82-1.22v-.24l-2.64-.61h-.2Zm.2-4.75.61.21V184l-.4-.4Zm1.34-40.59v.25l-.2.2v.2a1.08,1.08,0,0,1-1-.65Zm-.73,51.15c.14.78.88,1.32,2.24,1.62h.2l.2-.2V196l-.2-.21c-1.49-.43-2.23-.84-2.23-1.21h-.21Zm.41,5.76h.44v-1h-.44ZM218.1,190l.2.2v.41h.61l.2-.2c0-.22-.27-.42-.81-.61Zm2.67,6.37.61-2.47v-.21l-1.86.65-.61-.44A2.8,2.8,0,0,0,220.77,196.41Zm-1.46,1.26h.21l-.41-.41h-.2Zm.21-6v.25l1.66-.45v-.81l-.2-.2-1.67.2Zm1.25,5.81h1v-.21l-1-.2Zm.21,2.27h1v-.41h-.61Zm21.23-56v.44l.61-.2,1.25,1h.21v-.4a2.23,2.23,0,0,1-1.38-.85H246l.77.85v2.47a1.72,1.72,0,0,1-1.46,1.06c0,.27.22.41.65.41v1l-.41.41h-1.25v-1.26c0-.27.2-.41.6-.41l-.4-.61a2,2,0,0,1-1.66,1v.4H241.6l-.21.21.41.65.61-.41h1.05c.27,0,.41.41.41,1.22.54,0,.81.28.81.85l1.06-.65h1v32.84q-2.38,13.92-12.3,17.62a18.24,18.24,0,0,1-5.31.85l-.21-.61h-.2a.54.54,0,0,1-.61.61c-.92,0-1.56-.07-1.91-.12v-3.09l.49-.53-.2-.2V198l1.62-.2v-.4l-.2.2-.25-.2H226.5l-.2.2h-.09v-8.28h.49l2.23.2v-.4h1.67v-.41l-.21.2h-.24l-.2-.2v-.2a6.55,6.55,0,0,0,3.57-6V149.12l.61-1-.2-.61v-.2l.2-.25h-.61v-1.62l.41-.45h.6l.25.25a7.41,7.41,0,0,1,.12-1.5h3.21l0,.24-1-.2h-.2l-.45.4v.21l.45,1.05h.61l1,.2V146l-.61.61.21,1.26h.4c0-.27.22-.41.65-.41v-.2h-.45v-.25l.21-1q1.26-.4,1.26-.81V145l-.82.25h-.2l-.24-.25c0-.54-.14-.81-.41-.81v-.44Zm-11,48.87-1.67-.21-.2.21v.81l1.66.44v-.24Zm.44,3.93H231v.41h1Zm.57-4.74c-.54.18-.81.39-.81.6l.2.21h.61v-.41l.2-.2Zm2.52-48.06a1.14,1.14,0,0,1-1,.65v-.21l-.2-.2v-.24Zm.89,6.25H235l-1,.81C235,150.6,235.59,150.33,235.59,150Zm-.93,33.73-.41.4v.41l.61-.2Zm2.64,4.14h-.21l-2.64.61v.24c1.09,0,1.69.41,1.83,1.22l.61-.21v-1l.41-.65Zm-1.51-39.94H236l.6-1.06-.6-.61h-.21a1.64,1.64,0,0,1-1.26.81v.25A2,2,0,0,1,235.79,147.91Zm-.2,4.75v-1h-.41v1Zm1.22,25.93-1,.21v.2h1Zm-.29-22.48c.19.67.4,1,.61,1a2.19,2.19,0,0,1,1.06-1.87v-.81l-2.07,1.46v.21Zm2.15,19.36-.6.44-1.87-.65v.21l.61,2.47A2.79,2.79,0,0,0,238.67,175.47Zm-1.94,21.27h-.45v1h.45ZM237.9,191h-1v.61h.2C237.63,191.37,237.9,191.16,237.9,191Zm.17-39.33v-.85l-.41.4v.45Zm.6,27.16h-.2l-.4.4h.2Zm.49,8.44h-.4l.2,1v.65h.41v-.65Zm1.1-6.78-.21-.2h-.2l-.81.81a3,3,0,0,1,.41,1.66c.27,0,.4-.2.4-.61l-.2-1.05Zm1.46-4.34h-.2c0,.38-.75.78-2.24,1.21l-.2.21v.2l.2.2h.21c1.35-.29,2.09-.84,2.23-1.62Zm-2.15-22.53.2-.61v-.2h-.65v.81Zm1.13,30.56h-.44v.65C240.56,184.8,240.7,184.59,240.7,184.15Zm.73,5.16-.81.4v.21h.81Zm-.73-3.9.41-.4v-.21C240.84,184.8,240.7,185,240.7,185.41Zm.41-5.19v0h.41l0,0Zm2.56-27.56.2-.21q-.24-.64-2.07-1.26l-.41.45A3.16,3.16,0,0,1,243.67,152.66Zm-1.34,28h-.41l.21.82h.2Zm4-33.81v-.61h-1.26v.41Zm-1.06,12,.45-1.26-.21-.61h-.44v1.87Zm.85-5,.21-1-.82-.2v.2l.41,1Zm-.32,22.73,0,.25.12-.16Zm.53-26-.21-.21.21-1.46v-.4h.4v2.07Z"/><path class="a" d="M275.53,192.27l-.16.16h.16v9.79h-4.26L250,144h12.58l12.91,35.39Zm-17.9-45.66h1.62l-.4-.65v-.41l.2-1h-.2l-.2.2-2.48,1V146Zm1.62,7.67.41-.41v-.2h-.41l-.2.2v.41Zm1.42,3.94-.6-.25h-.21l.41.65Zm1.43,3.24V161h-.41l-.45.44Zm.77,4.06.2-.81-.61-.2-.45.61Zm.4,2.88-.4-.4h-.21v.4Zm1.67-2.07v-.4h-.65l-.41.4Zm.44,8-.2-1h-1.05v.2c.56,0,.85.2.85.61v.4l-.45.65v.21C264.83,175.29,265.11,174.94,265.38,174.29Zm0-5v-.41c-.4,0-.61-.15-.61-.45h-.44v.21Zm2.84,12.22c0-.28.22-.41.65-.41v-.2h-.44v-.25l.2-1q1.26-.41,1.26-.81v-.25l-.81.25h-.21l-.24-.25c0-.54-.14-.81-.41-.81v-1.22H268l-.2,1-1-.21h-.2l-.45.41v.2l.45,1.06h.61l1,.2v.41l-.6.61.2,1.26Zm-1.13-10.27v-.41h-.65v.41Zm.73,14v-.85l-.41.4v.45Zm.57-17.82.4-.41v-.2l-.2-.2-.45.4v.41Zm2.11,6.62a2,2,0,0,1-1-1.63H269c0,.54-.29.81-.86.81v.21C268.18,173.67,268.94,173.87,270.46,174ZM269,184l.2-.61v-.2h-.65V184Zm.61-7.87.2-.61h-.2l-.21-.21h-.61ZM271,189.47v-.93c-1.06,0-1.61-.33-1.67-1h-.2v.25C269.16,188.43,269.78,189,271,189.47Zm1.25-5.11.21-.21a.54.54,0,0,1,.61-.61v-.44c-1,.49-1.43.84-1.43,1.05v.21Zm1,12.78-.2-1h-.65l.24,1Zm-.41-3.49c.19.68.39,1,.61,1a2.19,2.19,0,0,1,1.06-1.87V192l-2.07,1.46v.2Zm1.71-6h.2v-.4c-1-.27-1.46-.68-1.46-1.22h-.61v.81l.61-.2Zm-1.06-4.95v-.2l.25-.2h-.86v.2Zm1.46,2.68c0-.19-.27-.39-.81-.61v.41Zm22.21-23.54,6.41,17.57v12.87l-.16.16h.16v9.79h-4.26l-8.44-23.14-8.45,23.18H278V199l1.17.49.21.2h.2l-.2-1v-.41l.4-.65h-1.62l-.16.08V179.89l6.57-18.06ZM279.59,190v.4l.2.21h.41v-.21l-.41-.4Zm1.22-4.34-.41.64h.21l.6-.24Zm1-2.85.45.45h.4v-.45Zm.77-3.65.45.61.61-.2-.2-.82Zm.65-3.29v.41h.21l.4-.41Zm1.22,2.07.41.41h.65v-.41Zm.65-9v.2l.45.65v.41c0,.41-.29.61-.86.61v.2h1.06l.2-1C285.65,169.3,285.37,169,285.07,168.89Zm-.24,6.74v.2h.44c0-.29.21-.44.61-.44V175Zm2.8.41v-1.63l-.65.41h-.41l-1-.2v.2l.2.2,1,2.48h.2Zm-.81-7.11h.24a1.67,1.67,0,0,1,.81-1.26v-.2l-.61-.61-1.05.61v.2A2,2,0,0,1,286.82,168.93Zm.12,4.1v.41h.65V173Zm1-9.74c.54,0,.81.14.81.41l-.2.65.2.2h.65c0-.43.21-.65.61-.65v-.2a.92.92,0,0,1-1.05-1V162A2.15,2.15,0,0,0,287.91,163.29Zm.73,13.56v.4l.45.41.2-.2v-.21l-.4-.4Zm1.67-11.61a1.16,1.16,0,0,0-.21-.16l0,0Zm2.35.53v-.41l-.4-.41v.41Zm.33,7.51-.13.4a.48.48,0,0,1,.17.41v.4l-.45.65v.21c.3-.06.58-.41.85-1.06l-.2-1Zm1.54-5.69.4-.16q-.57-1.58-1.17-1.83l-.21.21A3.28,3.28,0,0,1,294.53,167.59Zm1.7,13.89c0-.28.22-.41.65-.41v-.2h-.44v-.25l.2-1q1.26-.41,1.26-.81v-.25l-.81.25h-.21l-.24-.25c0-.54-.14-.81-.41-.81v-1.22H296l-.2,1-1-.21h-.2l-.45.41v.2l.45,1.06h.61l1,.2v.41l-.61.61.21,1.26Zm-1.13-10.27v-.41h-.65v.41Zm.16,3.16-.57-.2v.24l.2.21h.41v-.21Zm-.12-9.82h.4c0,.4.14.61.41.61v-.61l-.61-.2h-.2Zm.69,20.66v-.85l-.41.4v.45Zm.56-18.59V166l-.44-.41v.61Zm0,.77.41-.41v-.2l-.2-.2-.45.4v.41Zm2.12,6.62a2,2,0,0,1-1-1.63h-.4c0,.54-.29.81-.86.81v.21C296.23,173.67,297,173.87,298.51,174ZM297.09,184l.2-.61v-.2h-.65V184Zm.6-7.87.21-.61h-.21l-.2-.21h-.61Zm1.38,13.39v-.93c-1.05,0-1.61-.33-1.66-1h-.2v.25C297.21,188.43,297.83,189,299.07,189.47Zm1.26-5.11.21-.21a.54.54,0,0,1,.6-.61v-.44c-.94.49-1.42.84-1.42,1.05v.21Zm1,12.78-.21-1h-.65l.25,1Zm-.41-3.49c.19.68.39,1,.61,1a2.2,2.2,0,0,1,1.05-1.87V192l-2.07,1.46v.2Zm1.71-6h.2v-.4c-1-.27-1.46-.68-1.46-1.22h-.61v.81l.61-.2Zm-1.06-4.95v-.2l.24-.2h-.85v.2Zm1.46,2.68c0-.19-.27-.39-.81-.61v.41ZM306.06,199l1.17.49.21.2h.2l-.2-1v-.41l.4-.65h-1.62l-.16.08V179.89l13-35.76h12.58l-21.19,58.13h-4.42Zm1.58-9v.4l.2.21h.41v-.21l-.41-.4Zm1.22-4.34-.41.64h.2l.61-.24Zm1-2.85.45.45h.4v-.45Zm.77-3.65.45.61.61-.2-.21-.82Zm.65-3.29v.41h.2l.41-.41Zm1.22,2.07.41.41h.64v-.41Zm.65-9v.2l.44.65v.41c0,.41-.28.61-.85.61v.2h1.06l.2-1C313.7,169.3,313.42,169,313.12,168.89Zm-.24,6.74v.2h.44c0-.29.2-.44.61-.44V175Zm3.49-12.87-.21,1.26.61.61V165l-1,.2h-.61l-.45,1v.21l.45.4h.2l1-.2.2,1h.2V166.5c.27,0,.41-.27.41-.81l.24-.25h.2l.82.25v-.25q0-.41-1.26-.81l-.21-1v-.25h.45v-.2c-.43,0-.65-.14-.65-.41ZM315,173v.41h.64V173Zm1-14v.44l.41.41V159Zm.73,17.82v.4l.45.41.2-.2v-.21l-.41-.4Zm.08-6v.2c.57,0,.85.27.85.81H318a2,2,0,0,1,1-1.62C317.53,170.37,316.77,170.57,316.77,170.84Zm.41-10.55v.81h.65v-.2l-.21-.61Zm.24,8.68H318l.2-.2h.21l-.21-.61Zm.33-12.54v.24h.2c.05-.65.61-1,1.66-1v-.93C318.37,155.25,317.75,155.81,317.75,156.43ZM319.49,169v.21c0,.21.47.56,1.42,1v-.45a.54.54,0,0,1-.61-.6l-.2-.21Zm1-12.78-.24,1h.65l.2-1Zm-.2,3.49v.2l2.07,1.46v-.81a2.2,2.2,0,0,1-1.05-1.87c-.22,0-.42.34-.61,1Zm.85,7-.6-.2v.81h.6c0-.54.49-.95,1.47-1.22v-.4h-.21Zm-.4,4.14v.2h.85l-.24-.2v-.2Zm.12-25V146a1.67,1.67,0,0,1,1.26.81h.2l.61-.61-.61-1.05h-.2A2,2,0,0,1,320.83,145.8Zm.85,7.75.41.45q1.83-.62,2.07-1.26l-.2-.21A3.16,3.16,0,0,1,321.68,153.55Zm.29,14.61v.41c.54-.22.81-.42.81-.61Zm1.17-12.78h.65l.41-.45h-.61Zm.86-3.74h.4l.41-.41h-.41Zm1.21,2.48v.4c-.4,0-.6.14-.6.41h.6l.21-.61v-.2Zm1.26-7.23c0,.54-.13.81-.4.81l-.65-.2-.21.2v.65c.44,0,.65.21.65.61h.21c0-.7.34-1.05,1-1.05h.65A2.15,2.15,0,0,0,326.47,146.89Z"/><path class="a" d="M371.73,145.84c0,.27-.63.63-1.91,1.09v.16l1,.21c0-.38.13-.57.4-.57l.17.93-.57.9v.2h-.57l-.41-.37v-.89a1.73,1.73,0,0,1-1.38-.57v.16l-.16-.16h-.16l-1.22.37-.4-.57.6-.53V146l-.4-.37a1.57,1.57,0,0,0-1.75,1.26h-.2l.2.16v.21l-.4.36h-1.34c0-.62-.14-.93-.41-.93h-.16a1.28,1.28,0,0,0-.77,1.3c.73,0,1.09.12,1.09.36h-.16l.16.53h.25c.27,0,.4-.17.4-.53l.17-.2h.6l.57.37c0,1-.44,1.46-1.34,1.46,0-.22-.32-.33-1-.33v-.4H362c-1.22,1.59-1.93,2.39-2.15,2.39s-.37.3-.37.89l-.2.17h-1l-1-.17v.17l.37.93-.21.16h.41c.27,0,.41-.24.41-.73.27,0,.4.31.4.94H359l-.45,1.05h.24l.77.2v.33H355l-1.34-.16-1.75.16H339.06a2.76,2.76,0,0,1-1.59-.69h-.36l.16.16v.53h-.16l-.21-.16-.93.16h-2.52l-1.21-1.06v-.89l.4-.57.16.16h.65l-.44-1h-.37v-1.1h.81l.33.73v.21h.2l.41-.37v-.2c-.35,0-.75-.37-1.18-1.1l.24-1.09c.87.13,1.3.32,1.3.56v.9q.57,0,.57.93l1.22.69h.16v-.69h1.18v.69l-1,1.1v.36h.21c0-.59.39-.89,1.18-.89h.2c0,.49.32.85,1,1.1v.16h-.4v.36h.56l1.59-.36v-.37l-1.22-.57-.37.41-1.54-2,.21-.57h-.21c-.59,0-1-.47-1.18-1.42a1.46,1.46,0,0,0,1-1.13h.61l.4.36v.16l-.2.94.2-.17h.17l1.13.37v-.93l-.2.2h-.37v-.57l.82-.36h.2v-.17q-1.38,0-1.38-.36v-.37l.2-.57h-.2l-1.18-.36.21-.16v-.17l-.41-.36c0,.84-.26,1.26-.77,1.26l-.94.2L336,146l-.2.16h-1.38c0,.73-.14,1.1-.41,1.1H332.8v-1.1c0-.21.4-.39,1.18-.53,0-.86.14-1.29.41-1.29h1.38v.36h.2c0-.49.12-.73.37-.73h3.45l1.21,1.3V144h.21l.57.37h.6L343,144h11.49c.24,0,.37.19.37.57h.2c0-.38.13-.57.4-.57h4.31l.36.37v.2l-.2.16v.16h.2l1-.89h7.59v.37l-.37.36v-.16l-.61.16v.41h1q.36,0,.36,1h.2l.41-1.3H370l.2.25h.2l.21-.25A1.74,1.74,0,0,0,371.73,145.84ZM333,144.38l-.21.2h-.16l-.4-.37.2-.2h.2Zm1.54,9.66h-.16v.16c.11.73.3,1.09.57,1.09h.2v-.73Zm2-5.48h-1l-.36-.37,1.18-.32.2.16Zm.93-3.25a.5.5,0,0,1-.57-.57l-.36.41-.2-.25H336v.94h.2a2.07,2.07,0,0,1,1.3-.33Zm2.52.89h-.2l-.33.37.33.36Zm1.22-.53H341l-.36.37v.16H341l.21-.16Zm.57.53-.37.37.16.52h.21Zm1.38,7.84a.85.85,0,0,1-1-.94H342l-.2,1.46H343Zm.36-8.2h-.77l1.18.89.2-.16Zm3.33-.94h-.41v.41l-.2-.16H346l-.57.16v-.16l-.2-.57h-.17v.57a2.36,2.36,0,0,1,1.34,2.35h.41l-.41-1.66.41-.33Zm0,9.66-.2-.16H346c0,.35-.26.53-.77.53v.53a2.55,2.55,0,0,1,1.38-.73v.36h.2Zm1.91-3.08h-.37l-.2,1.09H348a2.36,2.36,0,0,1-1.38-.52h-.21v.32c0,.24.27.37.82.37l.2,1.09h.93Zm-1.22,50.62V181.72l.61-1-.2-.6v-.21l.2-.24h-.61v-1.58l.41-.45h.6l.25.24c0-1.48.27-2.23.81-2.23l-.2-.85.4-.37h1.46v-.4c.54,0,.82-.14.82-.41h-1.67l-1-.24v.24l-1.26.41H348l-.41-.41v-7.71H348v1h.4l.45-1.17,1-.41.21-.2h-.61l-.61.4H348l-.41-.4V163.7l.2-.21c.41,0,.61-.21.61-.65l-.81-1.17v-1.83H348v-1l-.41-.61V158l.41-.4h.85v.4h-.45v.21h1.26v-.61h2.48v1h.2l1.26-1h1c.27,0,.41.2.41.61h1.26c0-.41.13-.61.4-.61h1.46l.41.4.61-.4h1.26l.4.4v1.63h-.61c0-.54-.42-.81-1.25-.81h-.21l.21.6-1,1.22v.2l1.22-1h.44l.61.61v.2l-.2,1c-.84.19-1.26.39-1.26.61v.2l1.26-.61c.27,0,.41-.34.41-1h.4v5.69l-.61-.21-.4.37c.4,0,.74.28,1,.85v8.93h-.4v-.81h-1.06l1.46,1.58v2.44a1.72,1.72,0,0,1-1.46,1.05c0,.25.22.37.65.37v1.06l-.41.4H358.3v-1.26c0-.27.2-.4.61-.4l-.41-.57a2,2,0,0,1-1.66,1v.41h-1.22l-.21.2.41.65.61-.4h1.05c.27,0,.41.39.41,1.17.54,0,.81.29.81.85l1.06-.65h1V202.1Zm.2-25.25-.2-.16v-1.87H348c0,.4.28.76.85,1.05a1.06,1.06,0,0,1-1.06,1.18Zm.08-29h-.16v.69H348v-.17Zm1.79,34.7H349l-1.05.77C349.05,183.15,349.61,182.9,349.61,182.57Zm-.85-36.37h-.17l-.56.53h.16Zm2.11,25.41h-.65a.9.9,0,0,1-1-1H349c0,.38-.22.57-.65.57v.64l.2.21.65-.21c.27,0,.41.27.41.82A2.15,2.15,0,0,0,350.87,171.61Zm-1.06,8.93H350l.6-1-.6-.61h-.21a1.64,1.64,0,0,1-1.26.81v.24A2,2,0,0,1,349.81,180.54Zm-.65-35-.2-.2h-.2v.2h.2l-.2.16V146h.2Zm.45,39.66v-1h-.41v1Zm.57-31.91-.81-.16v.37h.81Zm1.09,6.58.21-.81-.61-.2-.45.6Zm-.4,7.31h.61l-.41-.45h-.65Zm1.62,13.39c0-.27.22-.4.65-.4v-.21h-.45v-.24l.21-1q1.26-.41,1.26-.81v-.24l-.82.24h-.2l-.24-.24c0-.54-.14-.81-.41-.81v-1.18h-.2l-.2,1-1-.21h-.2l-.45.37v.2l.45,1.06h.61l1,.2v.4l-.61.57.21,1.26Zm-1-34.7h-.37l-.57.56.41.9h.16l.37-.37-.21-.89Zm.65,7.63h-.21l-1.38.2v.53c.63,0,.94.3.94.89a1.53,1.53,0,0,0,1.21-1.05Zm-1-3.09h-.36v.73l.52.57h.21v-.2Zm.57,12.3-.41-.4h-.2v.4Zm0,8.08h.41l-.41-.37h-.41Zm.41,13.43v-.85l-.41.41v.44Zm.6-16.23v-.2l-.2-.61h-.61c0,.27.21.4.61.4V168Zm0-16.28h-.56v.16l.16.53h.4Zm.65,9v-.4h-.65l-.4.4Zm1.42,12.54a1.87,1.87,0,0,1-1-1.58h-.41c0,.54-.28.81-.85.81v.21C352.49,172.87,353.25,173.06,354.76,173.19Zm-1-9.7v-.4c-.41,0-.61-.14-.61-.41h-.45v.16Zm-.41,19.45.21-.57v-.2h-.65v.77Zm.61-7.72.21-.56H354l-.2-.21h-.61Zm-.08-30.07h-.4l-.21.52.21.17h1v-.17Zm.29,35c.18.64.39,1,.6,1a2.18,2.18,0,0,1,1.06-1.83v-.77l-2.07,1.42v.21ZM356,148.19c-.65,0-1-.11-1-.32l.2-.57a2.1,2.1,0,0,1-1.34.36V148c0,.22.31.39.94.53l.2-.17.4.69H355v.21h.77Zm-1.34,4.75h-.2l-.41.32h.61Zm3.86-6.37v.52h-.16l-.21-.89h-.4v.37H357l-1,.16-.36-1.06h.16l-.16-.93h-.21l-.2.16H355l.4,1.83H355v.36h1.42V148l.73-.16.57.16v1.26l-.57.56-.2-.16h-.37l-.4.33h.6v.36l-.81.73h-.2l-.16-.2-.21.2h-.2l-1-.2v.37l1.54.2-.16.2v.37h.16c0-.25.34-.37,1-.37q.09-.93.57-.93l1.59.73v-.57h-.45v-.53l.24-.16V150l1,.2h.16v-.37l-1.14-.16.21-.2v-.2l-.61-.21v-1.21h-.82v-.78h.41v.41h.2l.61-.2v.2c0,.27.45.5,1.34.69v-.69Zm-2.68,15.91-.2-1h-1.06v.21c.57,0,.85.2.85.61v.4l-.44.61v.2C355.26,163.44,355.55,163.1,355.82,162.48Zm0-8.65H355c0,.19.25.38.77.57Zm0,20.62.2-.2a.54.54,0,0,1,.61-.61v-.45c-.95.49-1.42.84-1.42,1.06v.2Zm1.87,10.72.2-.2c-.16-.41-.85-.82-2.07-1.22l-.41.44A3.23,3.23,0,0,1,357.69,185.17Zm.4-7.51h.21v-.41c-1-.27-1.46-.66-1.46-1.17h-.61v.77l.61-.16Zm-1-4.87v-.16l.24-.21h-.85v.21Zm.44-13.36V159h-.64v.4Zm1.22,11.74v-.78c-1.05,0-1.61-.27-1.66-.81h-.2v.2C356.84,170.33,357.46,170.79,358.7,171.17Zm-.2,4.26c0-.19-.27-.39-.81-.61v.4Zm1.87,4.06v-.61h-1.26v.4Zm-1.06,11.77.45-1.22-.21-.61h-.44v1.83Zm.85-21.27-.2-.85h-.65l.24.85Zm0,16.44.21-1.06-.82-.2v.2l.41,1.06Zm15.47-33.69-.37,1.09h.37v1.79h-.53l.16-1.22v-.2h-.16l-.65,1.42h-2.31v-.53h-.41c0,.35-.12.53-.36.53H362q0-.69-1.38-.69l-.2.16-.37-.53V154c0-.25.33-.37,1-.37v-.2c-.65,0-1-.18-1-.53v-.89l.37-.37h.81c0,.35.13.53.41.53l1-.16-.2-.21v-.16l-.21.16h-.56l-.41-.36v-.57A1.63,1.63,0,0,1,363,150h.25l.2.57,1.14-.37c0,.46.32.69,1,.69v1.46h.81v1.1l.17.2v.16c.4,0,.6-.24.6-.73l1.18-.16-.16-.2v-.17l-.2.17h-.45l-.57-.53-.2-.73h-.57l.2-.2v-.37l-1.17-.32.36-.74h-.36V148h.77l1,.16c0-.35.12-.53.37-.53h.85l.16.53q-1.38.33-1.38,1.5h.2a1.61,1.61,0,0,1,1.34-.93l.41.32-.2.21v.93h1.17c.27,0,.41.18.41.53h.41a1,1,0,0,1,1.09-1.06l-.16-.2v-.2l.36-1.63-.2-.16h.41c0,.35.13.53.4.53h.61v-.37h-.4l.2-.93v-.33h-.2v.33h-.37l-.24-.69h1v.53h.77l.21-.17h.16a1.19,1.19,0,0,0,1.18.69v.57l-.57.53-.45-.32-1.09.32v.37h.77v.2l-.41.32-.2-.16h-.16v.37l.36,1.09h.41a3.65,3.65,0,0,1,1.34-2.35h.16Zm-15.26,30.4-.21-.2.21-1.42v-.41h.4v2Zm2.84-37.63-.25-.2h-.52l.52.53.25-.17Zm1.54,7.06h-.2l-.57.17v.73h.4l.37-.73Zm.41,1.63-.41.36v.37h.2l.57-.2v-.17Zm.77-9.3-.57-.16-.2.16v.25l.56.36.21-.2Zm3.89,8.2c-.67,0-1.06-.17-1.17-.53l.2-.73-.2-1.25h-.53l.53,2.51.36.37h.41Zm2.56-9.09v.37l-1,.2-1.34-.2.4-.37Zm-1.58,8.73h-.57v.36l.57-.16Zm1.34-.69h-.41c0,.21-.24.32-.73.32v.37l.93-.53h.21Zm1.58-.57-.2-.2h-.16l-.61.56.2.21v.32c0,.6-.27.89-.81.89v.57h.24A4.78,4.78,0,0,0,373.72,151.48ZM372.14,154v.69l.4-.33Zm3.49-8.08-.94.24c-.37,0-.89-.49-1.54-1.46H373V144h1.5l1.18.32Z"/><path class="a" d="M144.35,131.45q-2.29-2.3-.84-6.22a16.42,16.42,0,0,1,1.34-2.83q.84-1.43,1.74-2.88c.56-.9,1.1-1.81,1.62-2.72a15.11,15.11,0,0,0,1.18-2.49,2.35,2.35,0,0,0,.28-1.49,1.81,1.81,0,0,0-.28-.48,1,1,0,0,0-.17-.11.62.62,0,0,0-.39,0,7.44,7.44,0,0,0-2.94,1.65,32.41,32.41,0,0,0-3.81,3.76q-2,2.33-4.29,5.41c-1.49,2-2.95,4.26-4.37,6.61l-1.29,2.07a1.9,1.9,0,0,1-1.26,1,2.1,2.1,0,0,1-1.59-.25,1.92,1.92,0,0,1-1-1.26,2.13,2.13,0,0,1,.25-1.6l1.17-2q1.18-2,2.67-4.54c1-1.72,2-3.51,3.08-5.36s2.11-3.71,3.14-5.6,2-3.66,2.82-5.32,1.59-3.14,2.19-4.43a20,20,0,0,0,1.18-3,2.15,2.15,0,0,1,1-1.31,1.78,1.78,0,0,1,1.6-.2,2.12,2.12,0,0,1,1.28,1,1.77,1.77,0,0,1,.17,1.57,15.5,15.5,0,0,1-.81,2.16c-.43,1-.93,2.08-1.51,3.28s-1.19,2.42-1.83,3.67-1.21,2.36-1.73,3.33a14.73,14.73,0,0,1,2.35-2.38,10.34,10.34,0,0,1,2.44-1.48,5.55,5.55,0,0,1,2.32-.48,3.67,3.67,0,0,1,2,.64,4.16,4.16,0,0,1,.95.93,4.06,4.06,0,0,1,.68,1.4,6.12,6.12,0,0,1,.17,1.88,9.4,9.4,0,0,1-.51,2.41,18.29,18.29,0,0,1-1.37,3c-.58,1-1.19,2-1.82,3.06-.34.52-.71,1.13-1.12,1.82s-.79,1.36-1.13,2a10.23,10.23,0,0,0-.72,1.76c-.15.52-.12.9.11,1.12.37.37,1,.29,1.88-.25a19.39,19.39,0,0,0,2.91-2.3,38.3,38.3,0,0,0,3.17-3.36c1-1.25,1.94-2.4,2.68-3.45a2.31,2.31,0,0,1,1.07-.84,1.31,1.31,0,0,1,.92,0,.82.82,0,0,1,.45.68,1.65,1.65,0,0,1-.36,1.17,13.91,13.91,0,0,0-.79,1.26c-.37.66-.84,1.41-1.4,2.27s-1.2,1.79-1.93,2.78a28.77,28.77,0,0,1-2.35,2.8,17.3,17.3,0,0,1-2.64,2.27,7.53,7.53,0,0,1-2.77,1.23,3.48,3.48,0,0,1-2.07-.2A5,5,0,0,1,144.35,131.45Z"/><path class="a" d="M159.7,132a6.22,6.22,0,0,1-1.2-1,4.65,4.65,0,0,1-.93-1.6,6.74,6.74,0,0,1-.31-2.27,11,11,0,0,1,.59-3,22.13,22.13,0,0,1,1.74-3.93q1.13-2,2.19-3.86c.52-.83,1-1.7,1.56-2.64a5.91,5.91,0,0,0,.84-2,2.08,2.08,0,0,1,.61-1.51,2,2,0,0,1,1.44-.62,2.06,2.06,0,0,1,1.49.59,2.18,2.18,0,0,1,.67,1.49,6.44,6.44,0,0,1-.78,2.8c-.51,1-1.25,2.39-2.21,4-.44.79-1,1.69-1.56,2.72a32.79,32.79,0,0,0-1.53,3,11,11,0,0,0-.84,2.66c-.13.8,0,1.33.47,1.6a1.31,1.31,0,0,0,.42,0,2.14,2.14,0,0,0,.82-.22,9.88,9.88,0,0,0,1.25-.73,17.14,17.14,0,0,0,1.75-1.4,27.31,27.31,0,0,0,1.94-1.94c.62-.69,1.21-1.36,1.75-2s1-1.24,1.43-1.77.73-1,.95-1.29a2.3,2.3,0,0,1,1-.84,1.2,1.2,0,0,1,.92,0,.89.89,0,0,1,.48.7,1.57,1.57,0,0,1-.42,1.18,13.38,13.38,0,0,0-1,1.62c-.48.86-1.1,1.83-1.85,2.92s-1.58,2.19-2.51,3.33A19.18,19.18,0,0,1,166,131a8.13,8.13,0,0,1-3.14,1.59A3.94,3.94,0,0,1,159.7,132Zm12.55-27.23a2.56,2.56,0,1,1-.75-1.88A2.57,2.57,0,0,1,172.25,104.78Z"/><path class="a" d="M174.55,119.12c.52-.82,1-1.71,1.57-2.69s1-2,1.46-3,.83-2,1.15-3a16.81,16.81,0,0,0,.64-2.57,2.68,2.68,0,0,1,.84-1.71,1.81,1.81,0,0,1,1.34-.53,1.31,1.31,0,0,1,1.07.78,3.09,3.09,0,0,1,0,2.19,9.37,9.37,0,0,1,2.58.47,4.13,4.13,0,0,1,2.13,1.6,5,5,0,0,1,.67,3.5,13.35,13.35,0,0,1-1.91,4.79c-1.12,1.87-2,3.35-2.6,4.46a14,14,0,0,0-1.32,3,7,7,0,0,0-.31,1.43c0,.32,0,.51.09.59a3.35,3.35,0,0,0,.78-.25,7.13,7.13,0,0,0,1.71-1.21,24.92,24.92,0,0,0,2.66-2.83,45.88,45.88,0,0,0,3.59-5.13,2.63,2.63,0,0,1,1.06-1,1.24,1.24,0,0,1,1-.09.82.82,0,0,1,.51.68,2,2,0,0,1-.42,1.28c-.6,1-1.33,2.19-2.19,3.65s-1.77,2.85-2.74,4.2a24.42,24.42,0,0,1-3,3.47,4.45,4.45,0,0,1-2.94,1.46,3.85,3.85,0,0,1-2.75-1,4.36,4.36,0,0,1-1.51-2.44,6.89,6.89,0,0,1,.22-3.19,22.94,22.94,0,0,1,1.68-4.12q1.18-2.3,2.86-5.15a8.78,8.78,0,0,0,1.29-2.81c.07-.56.11-.85.11-.89a1.81,1.81,0,0,0-.75-.25,7.69,7.69,0,0,0-2.44.14l-1.18,2.18c-.41.75-.8,1.45-1.18,2.1s-.71,1.25-1,1.77a10.73,10.73,0,0,1-.76,1.12,2.12,2.12,0,0,1-1,.81,1.31,1.31,0,0,1-.95,0,.75.75,0,0,1-.45-.65A2.15,2.15,0,0,1,174.55,119.12Z"/><path class="a" d="M197.13,132.74a5.81,5.81,0,0,1-3.58-1.12,5.73,5.73,0,0,1-2.58-4,11.59,11.59,0,0,1,.78-5.94,22.49,22.49,0,0,1,2.41-4.73,25.53,25.53,0,0,1,3.53-4.29c2.62-2.5,5.19-3.87,7.74-4.09,0,0,0,0,0-.06a2.14,2.14,0,0,1,2-.39,5.78,5.78,0,0,1,4,3.81,10.7,10.7,0,0,0,2.49.73,12.14,12.14,0,0,0,2.61.17,12.49,12.49,0,0,0,2.43-.34,5.38,5.38,0,0,0,1.94-.84,1.3,1.3,0,0,1,1-.28.88.88,0,0,1,.65.48,1.33,1.33,0,0,1,0,.89,1.68,1.68,0,0,1-.7.93,10,10,0,0,1-2.61,1.32,18.43,18.43,0,0,1-2.89.7,19.07,19.07,0,0,1-5.43.05,20.64,20.64,0,0,1-1.15,4.82,25.86,25.86,0,0,1-2.1,4.4,22,22,0,0,1-2.75,3.67,14.86,14.86,0,0,1-3.08,2.58A9.17,9.17,0,0,1,197.13,132.74Zm8.35-21.07a5.34,5.34,0,0,0-2.66,1.21,16.75,16.75,0,0,0-2.77,2.71,25.7,25.7,0,0,0-2.5,3.65,24.76,24.76,0,0,0-1.82,3.92,6.42,6.42,0,0,0-.36,1,7.71,7.71,0,0,0-.28,1.43,4.66,4.66,0,0,0,0,1.45,1.75,1.75,0,0,0,.7,1.1q1.51,1,3.93-.51a12.42,12.42,0,0,0,2.91-2.49,26.43,26.43,0,0,0,2.52-3.42,21.58,21.58,0,0,0,1.82-3.67,9.49,9.49,0,0,0,.7-3.36,9,9,0,0,1-1.29-1.18A4.23,4.23,0,0,1,205.48,111.67Z"/><path class="a" d="M271.26,132.85a6.36,6.36,0,0,1-4.7-1.68,6,6,0,0,1-1.74-2.83,9.29,9.29,0,0,1-.23-3.84,16.64,16.64,0,0,1,.93-3.69,22.85,22.85,0,0,1,1.88-3.87,33.74,33.74,0,0,1,2.74-3.81,15.74,15.74,0,0,1,3.08-2.86,8.87,8.87,0,0,1,4.46-2,7.59,7.59,0,0,1,3.16.3,4.83,4.83,0,0,1,3.25,3.7,5.88,5.88,0,0,1,0,3.14,7.27,7.27,0,0,1-1.68,3,2.13,2.13,0,0,1-1.46.73,2,2,0,0,1-1.51-.56,2.32,2.32,0,0,1-.7-1.46,1.87,1.87,0,0,1,.53-1.51,6.08,6.08,0,0,0,.78-1.1,3.56,3.56,0,0,0,.45-1.14,1.79,1.79,0,0,0-.05-1,1.22,1.22,0,0,0-.73-.67,2.37,2.37,0,0,0-1.85.22,9.49,9.49,0,0,0-2.24,1.57A22.06,22.06,0,0,0,273.2,116a27.48,27.48,0,0,0-2.22,3.16,25.5,25.5,0,0,0-1.4,2.83,12.12,12.12,0,0,0-.75,2.61,7.07,7.07,0,0,0-.06,2.18,2.35,2.35,0,0,0,.7,1.46,3.65,3.65,0,0,0,3.14.73,13.84,13.84,0,0,0,4.51-1.57,28.36,28.36,0,0,0,5-3.42,29.28,29.28,0,0,0,4.54-4.82,2.1,2.1,0,0,1,1.06-.89,1.14,1.14,0,0,1,.93,0,.87.87,0,0,1,.42.72,2,2,0,0,1-.45,1.26,62,62,0,0,1-4.15,5,34.43,34.43,0,0,1-4.34,4,22.14,22.14,0,0,1-4.43,2.66A10.82,10.82,0,0,1,271.26,132.85Z"/><path class="a" d="M295.69,131.45q-2.29-2.3-.84-6.22a17.28,17.28,0,0,1,1.35-2.83c.56-1,1.14-1.91,1.73-2.88s1.11-1.81,1.63-2.72a16.94,16.94,0,0,0,1.18-2.49,2.35,2.35,0,0,0,.28-1.49,2.62,2.62,0,0,0-.28-.48l-.17-.11a.63.63,0,0,0-.39,0,7.4,7.4,0,0,0-2.95,1.65,34,34,0,0,0-3.81,3.76q-2,2.33-4.28,5.41c-1.5,2-2.95,4.26-4.37,6.61l-1.29,2.07a2,2,0,0,1-1.26,1,2.12,2.12,0,0,1-1.6-.25,2,2,0,0,1-1-1.26,2.13,2.13,0,0,1,.25-1.6l1.18-2q1.17-2,2.66-4.54l3.08-5.36c1.07-1.84,2.11-3.71,3.14-5.6s2-3.66,2.83-5.32,1.59-3.14,2.18-4.43a20,20,0,0,0,1.18-3,2.18,2.18,0,0,1,1-1.31,1.79,1.79,0,0,1,1.6-.2,2.12,2.12,0,0,1,1.29,1,1.81,1.81,0,0,1,.17,1.57,17.42,17.42,0,0,1-.82,2.16c-.43,1-.93,2.08-1.51,3.28s-1.19,2.42-1.82,3.67-1.21,2.36-1.74,3.33a14.78,14.78,0,0,1,2.36-2.38,10.29,10.29,0,0,1,2.43-1.48,5.59,5.59,0,0,1,2.33-.48,3.67,3.67,0,0,1,2,.64,4.37,4.37,0,0,1,.95.93,4,4,0,0,1,.67,1.4,5.82,5.82,0,0,1,.17,1.88,9.4,9.4,0,0,1-.51,2.41,17.48,17.48,0,0,1-1.37,3c-.58,1-1.18,2-1.82,3.06-.34.52-.71,1.13-1.12,1.82s-.78,1.36-1.12,2a9.6,9.6,0,0,0-.73,1.76,1.11,1.11,0,0,0,.11,1.12c.38.37,1,.29,1.88-.25a18.9,18.9,0,0,0,2.91-2.3,36.87,36.87,0,0,0,3.17-3.36c1.05-1.25,1.94-2.4,2.69-3.45a2.29,2.29,0,0,1,1.06-.84,1.34,1.34,0,0,1,.93,0,.86.86,0,0,1,.45.68,1.71,1.71,0,0,1-.37,1.17,12.43,12.43,0,0,0-.78,1.26c-.38.66-.84,1.41-1.4,2.27s-1.21,1.79-1.94,2.78a27.42,27.42,0,0,1-2.35,2.8,17.72,17.72,0,0,1-2.63,2.27,7.57,7.57,0,0,1-2.78,1.23,3.48,3.48,0,0,1-2.07-.2A5,5,0,0,1,295.69,131.45Z"/><path class="a" d="M314,132.8a7.13,7.13,0,0,1-4.93-1.52,6.22,6.22,0,0,1-1.94-3.25,9.94,9.94,0,0,1-.08-3.89,16.3,16.3,0,0,1,1.23-4.06,24.67,24.67,0,0,1,2.07-3.76,25.34,25.34,0,0,1,3.23-3.95,19,19,0,0,1,3.78-3,10.48,10.48,0,0,1,3.89-1.4,5.69,5.69,0,0,1,3.62.7,5,5,0,0,1,2.07,2.16,5.19,5.19,0,0,1,.45,3,7.67,7.67,0,0,1-.73,2.64,11.59,11.59,0,0,1-1.54,2.41,10.64,10.64,0,0,1-2.16,2,10.2,10.2,0,0,1-2.63,1.29,14.4,14.4,0,0,1-1.49.3,7.19,7.19,0,0,1-1.87.06,7.77,7.77,0,0,1-2.11-.5,10.81,10.81,0,0,1-2.26-1.26,15.33,15.33,0,0,0-.93,2.21,11,11,0,0,0-.48,2,5.73,5.73,0,0,0,.06,1.77,2.6,2.6,0,0,0,.67,1.32,3.81,3.81,0,0,0,3.31.92,13.11,13.11,0,0,0,4.59-1.57,27.09,27.09,0,0,0,5-3.5,31.38,31.38,0,0,0,4.54-4.88,2.3,2.3,0,0,1,1.09-.92,1.22,1.22,0,0,1,1,0,.87.87,0,0,1,.42.73,2,2,0,0,1-.51,1.26,46.65,46.65,0,0,1-8.26,8.94c-2.75,2.18-5.32,3.39-7.71,3.61a3.79,3.79,0,0,1-.67.06Zm.89-15.58a4.2,4.2,0,0,0,4.15,1,5.53,5.53,0,0,0,2.35-1.37,8.53,8.53,0,0,0,1.6-2,5,5,0,0,0,.67-2,1.16,1.16,0,0,0-.47-1.23,1.84,1.84,0,0,0-1.49-.06,8.75,8.75,0,0,0-2.16,1,16,16,0,0,0-2.41,2A17.64,17.64,0,0,0,314.91,117.22Z"/><path class="a" d="M330.77,132.74a4,4,0,0,1-1.26-.2,7.32,7.32,0,0,1-1.21-.53,4.58,4.58,0,0,1-1.06-.9,3.65,3.65,0,0,1-.78-1.45,7.62,7.62,0,0,1-.31-2.1,10.41,10.41,0,0,1,.42-2.89,47.44,47.44,0,0,1,4.93-10.53q.62-1.06,1.29-2.13l1.34-2.13c.56-.94,1.14-1.89,1.74-2.86s1.14-1.91,1.62-2.83.91-1.77,1.27-2.58a8,8,0,0,0,.64-2.1,1.86,1.86,0,0,1,.81-1.34,2.19,2.19,0,0,1,1.6-.4,2,2,0,0,1,1.37.82,2,2,0,0,1,.42,1.54,16.9,16.9,0,0,1-2.1,5.57q-1.71,3.06-3.84,6.42-.62,1-1.29,2.07c-.45.71-.87,1.4-1.29,2.08a61.05,61.05,0,0,0-2.88,5.4,31.1,31.1,0,0,0-1.6,4.12,6.15,6.15,0,0,0-.31,2c.06.37.12.58.2.62a1.22,1.22,0,0,0,.42,0,2.31,2.31,0,0,0,.84-.22,8.75,8.75,0,0,0,1.29-.73,17.12,17.12,0,0,0,1.76-1.4,25.67,25.67,0,0,0,2-1.94c.63-.69,1.21-1.36,1.73-2s1-1.24,1.4-1.77.73-1,1-1.29a1.76,1.76,0,0,1,1-.81,1.3,1.3,0,0,1,.93.06.9.9,0,0,1,.45.67,1.68,1.68,0,0,1-.37,1.15,14.63,14.63,0,0,0-.92,1.4c-.43.71-1,1.53-1.6,2.47S339,126,338.22,127a28.08,28.08,0,0,1-2.43,2.8,16.84,16.84,0,0,1-2.55,2.1A4.57,4.57,0,0,1,330.77,132.74Z"/><path class="a" d="M342.26,132.74a4,4,0,0,1-1.26-.2,6.65,6.65,0,0,1-1.21-.53,4.38,4.38,0,0,1-1.06-.9,3.79,3.79,0,0,1-.79-1.45,8,8,0,0,1-.31-2.1,11.22,11.22,0,0,1,.42-2.89A47.9,47.9,0,0,1,343,114.14q.63-1.06,1.29-2.13l1.35-2.13c.56-.94,1.14-1.89,1.74-2.86s1.13-1.91,1.62-2.83.91-1.77,1.26-2.58a7.7,7.7,0,0,0,.65-2.1,1.86,1.86,0,0,1,.81-1.34,2.18,2.18,0,0,1,1.6-.4,2,2,0,0,1,1.37.82,2.06,2.06,0,0,1,.42,1.54,16.9,16.9,0,0,1-2.1,5.57q-1.71,3.06-3.84,6.42-.61,1-1.29,2.07c-.45.71-.88,1.4-1.29,2.08-1.19,2-2.16,3.82-2.89,5.4a30.88,30.88,0,0,0-1.59,4.12,5.88,5.88,0,0,0-.31,2c.06.37.12.58.2.62a1.22,1.22,0,0,0,.42,0,2.36,2.36,0,0,0,.84-.22,9.3,9.3,0,0,0,1.29-.73,17.12,17.12,0,0,0,1.76-1.4,25.57,25.57,0,0,0,2-1.94c.64-.69,1.21-1.36,1.74-2s1-1.24,1.4-1.77.73-1,.95-1.29a1.81,1.81,0,0,1,1-.81,1.31,1.31,0,0,1,.93.06.86.86,0,0,1,.44.67,1.61,1.61,0,0,1-.36,1.15,12.47,12.47,0,0,0-.93,1.4c-.42.71-1,1.53-1.59,2.47s-1.35,1.91-2.13,2.94a29.5,29.5,0,0,1-2.44,2.8,15.92,15.92,0,0,1-2.55,2.1A4.54,4.54,0,0,1,342.26,132.74Z"/><path class="a" d="M357.05,132.8a7.13,7.13,0,0,1-4.93-1.52,6.2,6.2,0,0,1-1.93-3.25,10.12,10.12,0,0,1-.09-3.89,17.18,17.18,0,0,1,1.23-4.06,23.88,23.88,0,0,1,2.08-3.76,25.27,25.27,0,0,1,3.22-3.95,19,19,0,0,1,3.78-3,10.52,10.52,0,0,1,3.9-1.4,5.68,5.68,0,0,1,3.61.7,4.9,4.9,0,0,1,2.07,2.16,5.19,5.19,0,0,1,.45,3,7.45,7.45,0,0,1-.73,2.64,11.59,11.59,0,0,1-1.54,2.41,10.44,10.44,0,0,1-4.79,3.25,14.16,14.16,0,0,1-1.48.3,7.27,7.27,0,0,1-1.88.06,7.79,7.79,0,0,1-2.1-.5,10.62,10.62,0,0,1-2.27-1.26,16.54,16.54,0,0,0-.93,2.21,10.2,10.2,0,0,0-.47,2,5.45,5.45,0,0,0,.05,1.77,2.61,2.61,0,0,0,.68,1.32,3.78,3.78,0,0,0,3.3.92,13.23,13.23,0,0,0,4.6-1.57,27.38,27.38,0,0,0,5-3.5,30.45,30.45,0,0,0,4.54-4.88,2.27,2.27,0,0,1,1.1-.92,1.19,1.19,0,0,1,.95,0,.87.87,0,0,1,.42.73,1.85,1.85,0,0,1-.51,1.26,46.65,46.65,0,0,1-8.26,8.94c-2.75,2.18-5.32,3.39-7.71,3.61a3.71,3.71,0,0,1-.67.06Zm.9-15.58a4.19,4.19,0,0,0,4.14,1,5.63,5.63,0,0,0,2.36-1.37,8.73,8.73,0,0,0,1.59-2,4.86,4.86,0,0,0,.67-2,1.16,1.16,0,0,0-.47-1.23,1.84,1.84,0,0,0-1.49-.06,8.54,8.54,0,0,0-2.15,1,15,15,0,0,0-2.41,2A17.08,17.08,0,0,0,358,117.22Z"/><polygon class="b" points="227.55 252.31 43.55 252.31 43.55 119.63 149.84 25.93 225.6 89.94 218.5 98.35 149.99 40.45 54.55 124.6 54.55 241.31 216.55 241.31 216.55 213.31 227.55 213.31 227.55 252.31"/><path class="a" d="M127.54,103.73a3.32,3.32,0,0,0,1-2.41,2.11,2.11,0,0,0-1.45-1.62,5.93,5.93,0,0,0-2.13-.45,9.41,9.41,0,0,0-2.23.21,15,15,0,0,0-2.2.66,20.67,20.67,0,0,0-2,.91,22.88,22.88,0,0,0-5.46,3.82,26.56,26.56,0,0,0-4.3,5.14,25.82,25.82,0,0,0-2,4.11,20.53,20.53,0,0,0-1.27,4.91,12.93,12.93,0,0,0,.24,4.75,5.93,5.93,0,0,0,2.47,3.58,8.26,8.26,0,0,0,2.68,1.28,11.45,11.45,0,0,0,2.86.37,13.12,13.12,0,0,0,3-.35,27.9,27.9,0,0,0,2.86-.82,18.15,18.15,0,0,0,3.64-1.86,14.29,14.29,0,0,0,3-2.65,11.53,11.53,0,0,0,.69-1l.61-1.09a6.74,6.74,0,0,1,.66-1,2.56,2.56,0,0,1,.9-.74,1.66,1.66,0,0,1,1.59-.21,1.53,1.53,0,0,1,.77,1,4.16,4.16,0,0,1,.08,1.59,4.07,4.07,0,0,1-.42,1.46,14.89,14.89,0,0,1-2.1,2.89,21.17,21.17,0,0,1-2.62,2.42,25.26,25.26,0,0,1-6.34,3.29,17.21,17.21,0,0,1-7,1,14.61,14.61,0,0,1-5.67-1.59,10.13,10.13,0,0,1-4.25-4,11.94,11.94,0,0,1-1.38-3.72,17.45,17.45,0,0,1-.29-4,19.51,19.51,0,0,1,.58-4,22.56,22.56,0,0,1,1.3-3.74,28.25,28.25,0,0,1,4-6.55,32.44,32.44,0,0,1,5.52-5.34c.92-.67,1.9-1.33,2.95-2A19.51,19.51,0,0,1,119,96.33a18.38,18.38,0,0,1,3.48-1,11.3,11.3,0,0,1,3.58-.06,8.46,8.46,0,0,1,3.15,1.12,7.22,7.22,0,0,1,2.26,2.09,6.28,6.28,0,0,1,1,2.82,7,7,0,0,1-.45,3.31,10.29,10.29,0,0,1-1.93,3.19,19.24,19.24,0,0,1-2.92,2.7,20.13,20.13,0,0,1-3.42,2.1,19,19,0,0,1-3.45,1.3,3.07,3.07,0,0,1-1.28,0,2.84,2.84,0,0,1-1.14-.53,2.94,2.94,0,0,1-.79-1,2.73,2.73,0,0,1-.3-1.27,2.33,2.33,0,0,1,.46-1.46,4.49,4.49,0,0,1,1.11-1.06,6.19,6.19,0,0,1,1.43-.72l1.46-.47a17.16,17.16,0,0,0,3.56-1.44A9.12,9.12,0,0,0,127.54,103.73Z"/><path class="a" d="M257.32,106.17a36.42,36.42,0,0,1,3.34,2.42,11.48,11.48,0,0,1,2.65,3.1,12.68,12.68,0,0,1,1.86,7.22,15.08,15.08,0,0,1-2.12,7.16,16.6,16.6,0,0,1-4.88,5.07,21.33,21.33,0,0,1-6.61,3,24.89,24.89,0,0,1-7.3.77,18.93,18.93,0,0,1-6.89-1.57,15.49,15.49,0,0,1-5.5-4.06,13.43,13.43,0,0,1-3-6.68,12.1,12.1,0,0,1,.5-6.37,12.52,12.52,0,0,1,3.32-5,14.28,14.28,0,0,1,11.67-3.53,12.33,12.33,0,0,1,2.89.82,4,4,0,0,1,2.15,2.1,2.92,2.92,0,0,1,.26,1.25,3.22,3.22,0,0,1-.23,1.24,2.68,2.68,0,0,1-.72,1,2.58,2.58,0,0,1-1.17.58,2.14,2.14,0,0,1-1.48-.26l-1.28-.8a15.11,15.11,0,0,0-1.8-.9,8.55,8.55,0,0,0-1.91-.53,6.77,6.77,0,0,0-2.89.08,8.56,8.56,0,0,0-2.68,1.3,7.76,7.76,0,0,0-1.91,2,6.91,6.91,0,0,0-1.06,3.29,10.86,10.86,0,0,0,.42,4.09,10.3,10.3,0,0,0,1.73,3.32,10.91,10.91,0,0,0,2.78,2.49,13.2,13.2,0,0,0,3.56,1.56,17.49,17.49,0,0,0,4.88.69,18.7,18.7,0,0,0,4.85-.63,16.68,16.68,0,0,0,4.46-1.94,13.76,13.76,0,0,0,3.63-3.26,11.89,11.89,0,0,0,2.29-5.44A8.87,8.87,0,0,0,260,114a8,8,0,0,0-1.78-2.22,22.35,22.35,0,0,0-2.3-1.78c-.82-.55-1.66-1.07-2.52-1.57a17.4,17.4,0,0,1-2.42-1.64,22.64,22.64,0,0,1-2.36-2.26,5.14,5.14,0,0,1-1.35-2.89,4.39,4.39,0,0,1,.13-1.72,5.64,5.64,0,0,1,.72-1.62A6.69,6.69,0,0,1,249.28,97a8.06,8.06,0,0,1,1.4-1,6.21,6.21,0,0,1,3.93-.79,10.88,10.88,0,0,1,3.93,1.32,18.48,18.48,0,0,1,3.55,2.6,26.14,26.14,0,0,1,2.76,3,1.48,1.48,0,0,1,.29,1.52,1.82,1.82,0,0,1-1.19,1.08,2,2,0,0,1-1.78-.16,7.41,7.41,0,0,1-1.41-1.22c-.38-.42-.92-.93-1.59-1.53a13.14,13.14,0,0,0-2.2-1.62,7.49,7.49,0,0,0-2.39-1,2.64,2.64,0,0,0-2.15.45,2,2,0,0,0-.5.48,1.83,1.83,0,0,0-.32.74,2.62,2.62,0,0,0,0,1,3.37,3.37,0,0,0,1.43,2c.43.29.89.57,1.38.85s1,.56,1.51.82S256.93,105.93,257.32,106.17Z"/><polygon class="b" points="145.15 19.91 141.85 16.15 57.69 89.99 57.69 19.84 52.69 19.84 52.69 94.38 9.42 132.33 12.72 136.09 31.55 119.57 31.55 253.31 36.55 253.31 36.55 115.19 145.15 19.91"/><path class="b" d="M54.25,80.23c0,.26,0,.51-.06.77h3.5c0-.32,0-.65,0-1V3.61c0-1.06,0-1-1-1.43A34,34,0,0,0,46.87.09,3.43,3.43,0,0,1,46.43,0H42c-1.56.19-3.13.33-4.68.57-2.76.44-5.51,1-8.28,1.4-4.23.69-8.45,1.49-12.7,2A30.06,30.06,0,0,1,1,1.63C.72,1.51.44,1.42.06,1.29c0,.25,0,.45,0,.65Q0,25.22,0,48.52a.77.77,0,0,0,.55.86,34.48,34.48,0,0,0,8.37,2.1,38,38,0,0,0,10.44-.19c4.24-.67,8.46-1.43,12.68-2.17A74.92,74.92,0,0,1,43.7,47.67a30.27,30.27,0,0,1,10.13,1.44c.18.06.31.33.41.53s0,.29,0,.44Z"/><path class="c" d="M37.27,19.21l-.94-.52a.75.75,0,0,0,.12-.52.74.74,0,0,0-.28-.43.81.81,0,0,0-.67-.19,1.36,1.36,0,0,0-.76.57,1.59,1.59,0,0,0-.46.93.79.79,0,0,0,.32.64.7.7,0,0,0,.49.18,1,1,0,0,0,.59-.29l.7.8a1.8,1.8,0,0,1-1.17.45,1.94,1.94,0,0,1-1.2-.49A1.87,1.87,0,0,1,33.27,19a2.13,2.13,0,0,1,.57-1.53,2.16,2.16,0,0,1,1.39-.87,1.87,1.87,0,0,1,1.46.47,2,2,0,0,1,.71,1A1.76,1.76,0,0,1,37.27,19.21Z"/><path class="c" d="M40.45,18.78l.55.9-1.74,1.08a1.56,1.56,0,0,1,1.16.73,1.6,1.6,0,0,1,.23.64,1.12,1.12,0,0,1-.06.56,1.25,1.25,0,0,1-.3.42,4.11,4.11,0,0,1-.65.47l-2,1.24-.56-.91,1.82-1.12a3.05,3.05,0,0,0,.65-.47.47.47,0,0,0,.12-.32.75.75,0,0,0-.11-.39.94.94,0,0,0-.36-.33.68.68,0,0,0-.49-.06,2.3,2.3,0,0,0-.71.32L36.26,22.6l-.56-.91Z"/><path class="c" d="M42.45,25.25l-.31-1,1-.28.3,1Zm-4.39,1.31-.31-1,3.87-1.16.3,1Z"/><path class="c" d="M39.59,28.27l-1.24.12-.1-1.07,4-.38.09,1-.57.06a1.63,1.63,0,0,1,.58.4.88.88,0,0,1,.17.45,1.42,1.42,0,0,1-.13.72l-1-.25a1,1,0,0,0,.13-.51.66.66,0,0,0-.16-.37.9.9,0,0,0-.47-.2A6,6,0,0,0,39.59,28.27Z"/><path class="c" d="M41.19,31.7a.93.93,0,0,1-.28,1.37,1.26,1.26,0,0,1-.94.1,1.39,1.39,0,0,1-.86-.45.93.93,0,0,1-.18-.75.92.92,0,0,1,.45-.63,1.63,1.63,0,0,1,1.81.36ZM39.4,30.2a1.72,1.72,0,0,0-.87.61,2.34,2.34,0,0,0-.45,1,2,2,0,0,0,.3,1.58,2.11,2.11,0,0,0,1.37.87A2.06,2.06,0,0,0,41.34,34a2,2,0,0,0,.88-1.36,2.26,2.26,0,0,0,0-1.1,1.83,1.83,0,0,0-.6-.88,2.12,2.12,0,0,0-1-.45A2.34,2.34,0,0,0,39.4,30.2Z"/><path class="c" d="M37.45,36.69A13.18,13.18,0,1,1,25.61,16.21v2.43H27.2V16.19a13.17,13.17,0,0,1,4,.86l.61-1.47a14.79,14.79,0,0,0-4.58-1l-.06-2.13h1.22s1.95-.12,1.95-2.75S28.24,7,28.24,7H25.61l-.05,7.63a14.76,14.76,0,1,0,13.18,23ZM27.2,8.64H28s.67.06.67,1.09-.55,1.1-.55,1.1H27.2Z"/></svg>